<svg id="Layer_1" data-name="Layer 1" xmlns="http://www.w3.org/2000/svg" viewBox="0 0 270.24 478.91"><defs><style>.cls-1{fill:#484748;}.cls-2{fill:#dcd9d5;}</style></defs><title>Final-AGASEKE</title><path class="cls-1" d="M765.52,342.65c.33-.32-.44-.28-.48-.24C764.71,342.74,765.48,342.69,765.52,342.65Z" transform="translate(-545.38 -97.04)"/><path class="cls-1" d="M774.32,340.46c.32-.33-.45-.29-.49-.25C773.5,340.54,774.28,340.5,774.32,340.46Z" transform="translate(-545.38 -97.04)"/><path class="cls-1" d="M764.06,336.79c.32-.33-.45-.28-.49-.24C763.24,336.87,764,336.83,764.06,336.79Z" transform="translate(-545.38 -97.04)"/><path class="cls-1" d="M745,340.46c.33-.33-.45-.29-.49-.25C744.19,340.54,745,340.5,745,340.46Z" transform="translate(-545.38 -97.04)"/><path class="cls-1" d="M774.32,333.86c.32-.33-.45-.29-.49-.25C773.5,333.94,774.28,333.9,774.32,333.86Z" transform="translate(-545.38 -97.04)"/><path class="cls-1" d="M760.39,337.52c.33-.32-.44-.28-.48-.24C759.58,337.61,760.35,337.56,760.39,337.52Z" transform="translate(-545.38 -97.04)"/><path class="cls-1" d="M756.73,338.26c.32-.33-.45-.29-.49-.25C755.91,338.34,756.69,338.3,756.73,338.26Z" transform="translate(-545.38 -97.04)"/><path class="cls-1" d="M796.55,322.62s.08-.81-.25-.49C796.26,322.17,796.22,323,796.55,322.62Z" transform="translate(-545.38 -97.04)"/><path class="cls-1" d="M788.24,328.73c.33-.33-.44-.29-.48-.25C787.43,328.81,788.2,328.77,788.24,328.73Z" transform="translate(-545.38 -97.04)"/><path class="cls-1" d="M789,336.06c.32-.33-.45-.29-.49-.25C788.16,336.14,788.94,336.1,789,336.06Z" transform="translate(-545.38 -97.04)"/><path class="cls-1" d="M776.27,340.7a5.1,5.1,0,0,0,2.2-1.47C776.94,339.53,777,339.39,776.27,340.7Z" transform="translate(-545.38 -97.04)"/><path d="M814.87,334.1c-1.41-6.87-3.88-11.72-10.75-14.65,1.37,2,3.44,4.11,3.9,6.59,1.17,6.29-8.29,10.67-12.69,12.82-12.84,6.24-27.12,8.88-41,11-50.18,7.7-102.94,8.53-153.18,1.1-13.27-2-25.85-5-38.11-10.49-3.45-1.55-10.39-4.65-10.26-9.3.2-3.2,3.59-5.58,5.86-7.33-2.26-.33-4,.92-5.86,2.23a17.37,17.37,0,0,0-7.17,16.83c.71,4.86,5,5.91,7.15,9.66,1.48,2.54,1.12,5.46,2.95,7.93-2.2,3.1,0,4.76.45,8.06,1,7.33,1,14.67,2.48,22,.91-2.45.58-5.43.74-8.07,2.32,1.94,2.4,3.95,3.88,6.41,2,3.34,4,6.48,5.87,9.93,2.44,4.48,2.66,7.24,8.57,7.85-.47,4.93,1.74,6.83,6.6,7.33.22,2.67.49,5.59,2.93,7.1,1.46,1,3.42,1,4.72,2.12,3.61,3.4,4,6.76,9.93,6.17l.74,4.4c-12.88,0-28.58-4.1-36.65-14.66-1.69,4.4,1.41,11,2.2,15.39.73,4.09.73,8.45,1.88,12.46.94,3.66,2.92,6.93,3.89,10.47.51,1.83,0,3.79.35,5.65.61,3.45,1.94,6.77,2.68,10.26,1-2.45.73-4.81,0-7.33l3.66.74c-.37,3.66.42,6.16,3.67,8.06-1.2,6.21,4.39,10.26,7.31,14.91,2.11,3.44,1.13,5.61,5.88,6.34,0,5.43,1.68,6.77,6.59,8.8-1.12,5.34,4.56,5.88,4.4,11-8.27-3.94-17-5.13-22.72-13.19-1.46,3.66,1.13,8.18,2.2,11.72a96.56,96.56,0,0,0,10.1,22c1.86,2.93,3.31,5.88,6,8.06a30.38,30.38,0,0,0-2.93-6.59c1.09.73.88.73,2.2.73l-1.47-3.66c2.36,0,4.32.91,6.6,1.46l-2.93-5.13,5.13,1.47c-1.52-2-2.55-3.39-2.93-5.87l3.66,1.47a19.51,19.51,0,0,0-.73-5.86,89.42,89.42,0,0,0,11.73,2.19c.32,3.67,2,4.62,3.66,7.52.73,1.4.71,3.22,1.91,4.4,1.38,1.36,3.58,1.14,5,2.45s1.81,3.54,3.58,4.69c2.24,1.47,5.29.73,7.53,2.2,1.69,1.15,2.31,3.31,4.1,4.4s3.88.6,5.48,1.9c1.17,1,1.42,2.49,2.41,3.52,1.43,1.53,4,1.17,5.88,1.17,1,5.9,15.35,4.58,19.79,2.93-2-.92-3.52-1.39-5.13-2.93a41.67,41.67,0,0,1,9.53.73l.73-2.93H683.2v-2.93c3.91,0,7.95.38,11.72-.73l-1.46-5.13h8.79a39.77,39.77,0,0,0-.73-5.86c4,0,8.92.53,12.46-1.47-3.72-3.66-.16-5.11,3.66-5.86v-3.67h2.93l-.73-2.93c4.4,1,6.36-1.65,6.6-5.86.73,1.12.59,1,1.46,1.46a17.16,17.16,0,0,1,5.13-2.2,6.13,6.13,0,0,1-2.2,3.67,7.58,7.58,0,0,0,3.67,1.46l-1.47,4.4a37.61,37.61,0,0,0,9.53-1.46l-1.47,5.13,3.67-.74c-.08,2.4-1.47,3.68-2.2,5.87,2.8-.16,4.78-1.17,7.33-2.2l-2.2,4.4a21.78,21.78,0,0,0,6.6-1.47,27.43,27.43,0,0,0-2.94,4.4H755a4.71,4.71,0,0,1-2.2.73c4.1,4.47,10.62-6.18,13.08-8.71,3.59-3.71,5.79-9.33,7.83-14,3.93-9,9.41-19.27,9.87-29.32-3.22,2.94-5.57,6.6-9,9.22-10.62,8.14-24.4,12.39-37.16,15.7l-.73-.73c2-3.43,5.27-4.38,8.79-5.86a9.12,9.12,0,0,0-.73-4.4c4.4-1.66,9.11-2.37,8.06-8.06,2.74-.41,5.82-1.11,7.3-3.67.76-1.43.41-3.26,1.41-4.39,1.23-1.47,3.49-1.39,4.9-2.64,1.75-1.57,1.51-4.12,3-5.87,3.23-4,7-3.56,6.16-9.82l4.4-1.46c0-3.21.58-5.09,2.93-7.33l-1.47,5.13,3.67-1.47-.74,8.07c2,0,1,1.22.74,2.93,2.43-2,2-5.13,2.54-8.06,1.11-6.16,2.79-12.2,4-18.33-2.24,2.2-3.83,4.94-5.86,7.33a9.19,9.19,0,0,1,2.93-5.13c-.8-3.88,1.14-5.33,2.39-8.79,1-2.86,2-5.87,3-8.8a127.21,127.21,0,0,0,5.65-25.65c-3.42,3-6.32,6.13-10.27,8.46-7.12,4.22-16.29,6.78-24.18,9.27-4.23,1.34-11.39,5.06-13.19-.87a20.69,20.69,0,0,0,8.79-2.93l-.73-5.13a51,51,0,0,0,10.26-2.94c-.23-5.74,2.72-4.39,5.63-8,1.5-1.8,1.32-4.47,1-6.67,3.07-.41,5.86-1.84,8.79-2.94a35.46,35.46,0,0,1-.73-6.59c4.89-.73,4.39-3.51,6.59-7.06s4.73-8.1,8.07-10.53l-.74,4.4c1.32,0,1.12,0,2.2-.74a26.11,26.11,0,0,1-.73,5.13c1.78,1.34,1.36,2.32.73,4.4,2.87-.95,2.93-2.93,3.34-5.86.61-5.11.94-10.25,1.06-15.39l-4.4,3.66c0-2.93,1.6-4.6,2.5-7.33,1-3.05.19-4.91,3.36-6.59-.73-5.87,5.41-7.6,7.74-12.46C816.22,340,815.5,337.17,814.87,334.1ZM557.14,346.56c-1.2-.4-1.07-.26-1.47-1.46h1.47ZM669.27,396.4c4.65,0,9.38-.35,13.93.73-1.15,3.44-4.27,2.76-7.33,3.67,2.93.06,5.84.89,8.79.93,1.62,0,4-.62,5.38.54,1.22,1.11.05,2.48-1.09,3-2.35,1.07-5.44.66-8,.66v1.46c5.31,0,17.16-2.2,19,4.4-5.68,0-11.2.28-16.85.73-3.16.15-6.18-.51-8.8,1.47,6.36-1.29,14.46-1.18,20.94-.57,3.25.31,8.38,1.76,11.31-.16,2.66,2.68,1.12,4.13-2.2,4.39v1.47c5.51,0,13.51-2.93,13.92,4.4a15.46,15.46,0,0,0-4.39.73c4.87,0,13.43-1.87,13.92,4.4-3.39.43-7,.5-10.26,1.46,4.63.28,14.06-2.2,16.13,2.93-10.81,3.29-23.95,2.66-35.18,2.95-5.63.14-11.23,1.3-16.86,1.45-12.23.29-24.41-.73-36.64-.73A183.62,183.62,0,0,1,625.3,436c-3.82-.37-7.33.06-8.06-4.42,3.18.11,6.34.17,9.52,0a11.58,11.58,0,0,1-1.46-5.87c5.4,0,10.51,1.47,15.39-1.46-2.33-.18-7.39-3.67-2.76-4.83,2-.45,4.41.43,6.42.43,6.87.16,15.39,1.22,22-.73-4.1-1-8.27-.73-12.46-.73-1.9,0-4.59.44-6.35-.45-2-1-1.13-3.17.65-3.72,3.19-1,7.51-.23,10.83-.23a20.38,20.38,0,0,1-2.2-5.13c4.78-.22,10.84-.73,15.39-2.2h-9.53c.43-5.41,6.14-4.53,10.27-6.6h-3.67ZM609.91,359h1.46v1.47h-1.46Zm-6.6-5.86h1.47v1.46h-1.47Zm-3.42-.25c.33-.32.29.45.25.49C599.81,353.73,599.85,353,599.89,352.91Zm-11.73-1.46c.33-.33.29.45.25.49C588.08,352.26,588.12,351.49,588.16,351.45Zm-3.66-.73c.33-.33.28.44.24.48C584.42,351.53,584.46,350.76,584.5,350.72Zm-4.89-2.45s.82-.08.49.25C580.06,348.56,579.29,348.6,579.61,348.27Zm-3.42-1a11.41,11.41,0,0,1,2.2,2.19,8.32,8.32,0,0,1-2.93-1.46Zm-9.52-.74h1.46a5.23,5.23,0,0,1-1.46,2.2Zm-2.2,2.2c1.2.4,1.06.27,1.46,1.47h-1.46Zm-1.47-4.4c1,.48.73.11.73,1.47h-1.46Zm-1,3.91c.05,0,.82-.08.49.25C562.47,348.56,561.7,348.6,562,348.27Zm22.24,39.49c-5.87-1.23-16.34-.16-20.7-5.07-1.35-1.5-1.29-4.2-1.77-6.08a9.93,9.93,0,0,1-.25-5.13l4.39,1.47a14.83,14.83,0,0,1-2.2-6.6,30.84,30.84,0,0,1,6.6,1.47,16.75,16.75,0,0,1-1.47-5.87c3.06.13,5.81.82,8.8,0a5.23,5.23,0,0,1-2.2-1.46c8.8,1.84,17.37,5.13,26.38,6.37,9.22,1.36,18.69,1.47,27.85,3.16V373a12.86,12.86,0,0,0-3.66,1.46c2.86.21,7.66,1.51,9.53,3.67,2.2-.37,2.93,0,3.66,2.2-3,0-5.89-.13-8.79.73,4.11,0,7.7.8,11.72,1.33,4.4.58,9.16.13,10.26,5.26-4.39,0-9-1.23-13.19,0,3.31,0,9.49-.36,11.73,2.2,4.07-.73,12.31-1.38,13.19,3.67-14.77,0-29.32-1.12-44-2.14C608.33,390.54,595.85,390.21,584.26,387.76Zm-6.36,53.1s-.81.08-.48-.24C577.46,440.58,578.23,440.54,577.9,440.86Zm23.94,34c-3.32-2.93-8.87-3.67-13.19-4.4-.22,1.56-.28,2-1.46,2.93l.73-3.66c-3.85-1.11-6.7-2.69-8.06-6.6l.73-.73,3.67,1.47a12.83,12.83,0,0,1-2.2-5.87,24.13,24.13,0,0,0,5.13.73c-2.25-1.37-2.74-2.51-2.93-5.13l5.86,1.47a11,11,0,0,1-1.47-5.13c2.6.59,4.69,1.28,7.33.73-2.32-1.27-2.73-2.51-2.93-5.13,3.91.39,7.07,1.88,11,.74-2.93-.74-3.93-2.16-4.39-5.13,3.66.73,7.31,1.08,11,0-3.14-.36-4.4-1.36-5.13-4.4a69.46,69.46,0,0,0,8.79.73l.74,3.67a14.93,14.93,0,0,0-3.67.73c4.29.05,8.06,1.7,12.46,1.46l.73,6.6,7.33.73a41.49,41.49,0,0,1,.74,5.87c4.94.73,8.79.89,9.52,6.59l7.33.74a26.32,26.32,0,0,1-.73,5.13,37.35,37.35,0,0,1,8.79.73l-.73,3.66c-5.39-.68-12.46-2.2-17.59-.73,8.44.17,16.61,2.93,24.92,2.93l-1.47,3.67a345.15,345.15,0,0,1-38.84-2.2C617,476.08,608.67,473.74,601.84,474.82Zm92.35,47c-5.63.14-11.23,1.3-16.86,1.45-12.23.29-24.41-.73-36.64-.73a186.32,186.32,0,0,1-19.79-.7c-3.82-.38-7.33,0-8.06-4.43,3.18.12,6.34.17,9.53,0a11.48,11.48,0,0,1-1.47-5.86c5.41,0,10.51,1.46,15.39-1.47-2.33-.18-7.39-3.66-2.76-4.83,2-.45,4.41.43,6.43.43,6.86.16,15.39,1.22,22-.73-4.1-1-8.27-.73-12.46-.73-1.9,0-4.59.44-6.35-.44-2-1-1.12-3.18.66-3.73,3.18-1,7.51-.23,10.82-.23a20.75,20.75,0,0,1-2.2-5.13c4.78-.22,10.84-.73,15.4-2.2h-9.53c.42-5.4,6.13-4.53,10.26-6.59h-3.67v-3.67c4.65,0,9.38-.35,13.93.73-1.14,3.44-4.27,2.76-7.33,3.67,2.93.06,5.84.89,8.79.93,1.63,0,4-.62,5.38.54,1.22,1.11.05,2.49-1.09,3-2.35,1.07-5.44.66-7.95.66v1.46c5.31,0,17.16-2.19,19,4.4-5.68,0-11.2.28-16.85.73-3.16.15-6.18-.51-8.8,1.47,6.36-1.29,14.47-1.18,21-.57,3.24.32,8.37,1.76,11.3-.16,2.66,2.68,1.12,4.14-2.2,4.39V505c5.52,0,13.51-2.93,13.93,4.4a15.9,15.9,0,0,0-4.4.73c4.88,0,13.44-1.86,13.92,4.4-3.39.43-7,.5-10.26,1.46,4.63.28,14.06-2.19,16.13,2.94C718.56,522.2,705.42,521.57,694.19,521.86Zm63-82.95c-.8,2.22-2.06,3.43-3.67,5.13a67.29,67.29,0,0,0,8.07-1.47c.71,2.67.35,3.8-1.47,5.86l8.06-1.46c-.09,2.7-.23,4.23-2.93,5.13,2.43,2.4,5.69.2,8.79,0a18.46,18.46,0,0,1-1.46,5.13l4.4-1.47a5.62,5.62,0,0,1-.74,4.4l2.2-.73c.53,3.71-1.91,5.2-5.13,6.59a109.89,109.89,0,0,1-16.12,5.13c-13.65,3.22-27.12,4.59-41,6-11.47,1.15-22.9,2.81-34.45,2.81.69-5.86,8.46-4.81,13.19-6.6-1.66,0-7.54-1.84-3.43-3.66,3.58-1.76,6.94.23,10-2.93-2.08-.69-3.4-2.51-.73-3.67,2.93-1.28,7.15-1.4,10.26-1.46a20,20,0,0,1-3.67-4.4c2.93,0,8.29.25,10.24-2.52,1-1.44.58-3.6,2-4.79,1.23-1,3.05-.65,4.41-1.38,2.34-1.25,1.64-4.5,1.64-6.7a35.61,35.61,0,0,0,8.8-1.47c-1.6-7.72,8.69-6.35,13.92-7.33-.2,2.63-.75,3.67-2.93,5.13C749.5,439.69,753.19,437.8,757.22,438.91Zm36.58-64.1c-1.2,2.15-4.38,2.93-6.53,3.69a170.37,170.37,0,0,1-19.06,5.18c-19.37,4.39-38.84,6.29-58.63,7.65-8.08.67-16.12,2.14-24.19,2.14v-4.4c9.52,0,19.18-3.66,28.59-2.2-4.09-3.09-10.6-.73-15.39-.73l-.74-4.4c4.62,0,9.39-1.22,13.93-.73l.73-2.2h-2.93c.38-4.94,4.56-5.13,8.79-4.4,1.24-1.39,1.86-1.18,3.67-.73a6.46,6.46,0,0,1,2.93-2.2h-5.86V370c20-.42,40.58-4.77,60.09-8.8a11.87,11.87,0,0,1-2.93,3.66,68.18,68.18,0,0,1,8.06-.73,9.88,9.88,0,0,1-2.19,5.13c2.55.29,4.21-.68,6.59-1.46a8,8,0,0,1,0,5.13C790.2,372.41,795.88,371.06,793.8,374.81Z" transform="translate(-545.38 -97.04)"/><path class="cls-1" d="M778.72,325.8c.32-.33-.45-.29-.49-.25C777.9,325.88,778.68,325.84,778.72,325.8Z" transform="translate(-545.38 -97.04)"/><path class="cls-1" d="M779.45,332.39c.32-.32-.45-.28-.49-.24C778.63,332.47,779.41,332.43,779.45,332.39Z" transform="translate(-545.38 -97.04)"/><path d="M691.5,132.43c-2.44-5-4.18-14.1-9.13-17.24-6.23-3.89-12.14-3.89-19-5.35-10.76-2.43-21.26-4.8-32.25-5.63-2.46-.18-4.88.65-7.33.33-5.56-.73-10.41-4.91-16.12-5.87-8.55-1.44-17.45-3-25.65.37-3,1.27-8.06,3.63-6.88,7.74,1.75,7,14.59,7.46,20.07,6.09,8.23-2.06,17.81-6,26.38-5.52,7,.46,13.54,4.42,20.52,5.21,7.49.94,15.35-.27,22.72.71,3.55.46,7,2.61,10.26,3.9-3.52,3.93-5.14,9.77-7.08,14.66-1,2.53-2.24,4.54-2.44,7.32a97.76,97.76,0,0,0,18.32,1.47c2.54,0,5.58,0,7.68-1.63C694,137.05,692.53,134.76,691.5,132.43Zm-83.79-25c-6.6,1.71-13.68,4.34-20.52,3.17-2.53-.44-8.8-1.15-9.19-4.4-.43-3.66,5.85-5.55,8.45-6.33,9-2.67,21.63.89,30,4.14C614.2,106.33,610.87,106.63,607.71,107.4Zm23.45.24v-1.47c5.13.45,10.22,2,15.39,2.45,4,.32,8-.25,11,2.68C648.75,110.2,639.89,108.4,631.16,107.64Zm33.22,4.15s-.81.08-.48-.24C663.94,111.51,664.71,111.47,664.38,111.79Z" transform="translate(-545.38 -97.04)"/><path d="M686.62,152.59c-.33.33.44.29.48.25C687.43,152.51,686.66,152.55,686.62,152.59Zm-2.69,7.82a5.12,5.12,0,0,0,2.2.73A5.21,5.21,0,0,0,683.93,160.41Zm-11.24,5.37c-.32.33.45.29.49.25C673.51,165.7,672.73,165.74,672.69,165.78Zm12-.24a5.21,5.21,0,0,0,2.2.73A5.12,5.12,0,0,0,684.66,165.54ZM678.8,175.8v1.46h1.46V175.8ZM683,176c-.32.33.45.29.49.25C683.77,176,683,176,683,176Zm3.67,0c-.33.33.44.29.48.25C687.43,176,686.66,176,686.62,176Zm-12.22,10a29.85,29.85,0,0,0,5.13,1.47C678.07,185.57,676.72,185.75,674.4,186.06Zm20.28,3.18c-.33.32.45.28.49.24C695.49,189.15,694.72,189.19,694.68,189.24Zm-15.88,1.22a7.86,7.86,0,0,0,2.93.73A7.67,7.67,0,0,0,678.8,190.46Zm19.54,3.17c-.32.33.45.29.49.25C699.16,193.55,698.38,193.59,698.34,193.63Zm-16.61,1.22a5.13,5.13,0,0,0,2.2.74A5.37,5.37,0,0,0,681.73,194.85Zm-2.2,5.13c2.63,1.11,5.37.8,8.06,0C685,198.88,682.27,199.33,679.53,200Zm10.75-.48c-.33.32.45.28.49.24C691.09,199.41,690.32,199.46,690.28,199.5Zm-16.61.48a7.82,7.82,0,0,0,2.93.74A7.87,7.87,0,0,0,673.67,200Zm.73,5.13c2.46,1,4.78.61,7.33,0C679.41,204.4,676.84,205.11,674.4,205.11Zm15.39-.73a7.72,7.72,0,0,0,2.93.73A7.81,7.81,0,0,0,689.79,204.38Zm-19,.73a5.13,5.13,0,0,0,2.2.74A5.37,5.37,0,0,0,670.74,205.11Zm11.72,0a5.23,5.23,0,0,0,2.2.74A5.27,5.27,0,0,0,682.46,205.11ZM672,209.76c-.33.32.45.28.49.24C672.77,209.67,672,209.72,672,209.76Zm8.06,0c-.33.32.45.28.49.24C680.83,209.67,680.06,209.72,680,209.76Zm2.44,1.22,2.2-.74C683.36,209.54,683.18,209.68,682.46,211Zm-4.39,3.66a5.28,5.28,0,0,0,2.19.74A5.14,5.14,0,0,0,678.07,214.64Zm14.41,3.91c-.33.33.45.29.49.25C693.29,218.47,692.52,218.51,692.48,218.55ZM678.8,219v1.47l7.33-.74C683.81,218.8,681.3,219,678.8,219Zm-28.58,5.13c-1,2.2-3.37,5.55-1.72,7.83,2.36,3.27,10.5,3.7,14.17,4.21,11.41,1.55,23.11.43,34.45-.93,3.44-.42,9.71-.61,11.69-4,1.4-2.42-.7-6.19-1.43-8.55C688.65,227.83,669.2,230.11,650.22,224.17Zm26.38.73,5.13-.73C679.73,223.44,678.07,223.22,676.6,224.9Z" transform="translate(-545.38 -97.04)"/><path class="cls-2" d="M653.88,227.1l.73.73ZM648.75,230l.73.74Zm8.79,2.2.74.73Z" transform="translate(-545.38 -97.04)"/><path d="M703,238.83c1.76-.48,2.6-.74,3.67-2.2C704.89,237.1,704.06,237.39,703,238.83Zm-1.71-.49c-.32.32.45.28.49.24C702.09,238.26,701.31,238.3,701.27,238.34ZM692,240.29a5.23,5.23,0,0,0,2.2-1.46A5.23,5.23,0,0,0,692,240.29Zm2.93,0,2.2-.73C695.82,238.86,695.64,239,694.92,240.29Zm-28.09-.49c-.33.33.45.29.49.25C667.64,239.72,666.87,239.76,666.83,239.8Zm2.44-.24a5.21,5.21,0,0,0,2.2.73A5.21,5.21,0,0,0,669.27,239.56Zm4.15.24c-.32.33.45.29.49.25C674.24,239.72,673.46,239.76,673.42,239.8Zm2.94,0c-.33.33.44.29.48.25C677.17,239.72,676.4,239.76,676.36,239.8Zm1.71.49c3.61,1.26,7.95.23,11.72,0C686.4,238.87,681.54,239.27,678.07,240.29Zm19,2.93.73.74Zm-8.06.74v1.46h1.46V244Zm4.15.24c-.32.33.45.29.49.25C694,244.12,693.25,244.16,693.21,244.2Zm-7.82,4.89c2.38.73,5.66.45,7.33-1.47Zm8.8,0c1.46-.3,1.46-.16,2.2-1.47A5.15,5.15,0,0,0,694.19,249.09Zm7.82-1.22c-.33.32.44.28.48.24C702.82,247.79,702.05,247.83,702,247.87Zm-26.39.73c-.32.33.45.28.49.24C676.44,248.52,675.66,248.56,675.62,248.6Zm3.67,0c-.33.33.45.28.49.24C680.1,248.52,679.33,248.56,679.29,248.6Zm1.71.49a5.94,5.94,0,0,0,3.66,0A5.87,5.87,0,0,0,681,249.09Zm26.14,3.17c-.33.33.44.29.49.25C708,252.18,707.18,252.22,707.14,252.26Zm-29.07,1.23a5.26,5.26,0,0,0,2.19.73A5.13,5.13,0,0,0,678.07,253.49Zm6.35.24c-.33.33.45.28.49.24C685.23,253.65,684.46,253.69,684.42,253.73Zm24.43,2.69v1.46h1.46v-1.46ZM702,263.26c-.33.32.44.28.48.24C702.82,263.18,702.05,263.22,702,263.26Zm-9.29.49c.4,1.19.27,1.06,1.47,1.46v-1.46Zm2.93,0a5.36,5.36,0,0,0,2.2.73A5.12,5.12,0,0,0,695.65,263.75Zm-12.7,6.1c-.32.33.45.29.49.25C683.77,269.77,683,269.81,683,269.85Zm16.13,4.4c-.33.33.44.29.48.25C699.89,274.17,699.12,274.21,699.08,274.25Zm-8.56.49a5.21,5.21,0,0,0,2.2.73A5.12,5.12,0,0,0,690.52,274.74Zm26.14,2.44c-.32.33.45.29.49.25C717.48,277.1,716.7,277.14,716.66,277.18Zm-12.45,1.47c-.33.32.44.28.48.24C705,278.57,704.25,278.61,704.21,278.65Zm22,2.2c-.32.32.45.28.49.24C727,280.77,726.23,280.81,726.19,280.85ZM691,285.24c-.32.33.45.29.49.25C691.83,285.16,691.05,285.2,691,285.24Zm22,3.67c-.33.32.45.28.49.24C713.81,288.83,713,288.87,713,288.91Zm19.79,2.2c-.33.32.45.28.49.24C733.6,291,732.83,291.07,732.79,291.11ZM767.48,296c1.18,6.6-2.31,9.07-8.06,11.4-7.4,3-15.65,4.13-23.46,5.52-10.08,1.78-20.13,1.57-30.25,2.35-18,1.37-36,2.75-54,2-7.81-.37-15.62-1.43-23.45-1.47a86.34,86.34,0,0,1-28.58-5.44c-5.16-1.89-7.87-5.28-6.6-10.68-6.67,3.11-15.63,13.29-5.86,18.32,2.52,1.29,5.37,1.47,8.06,2.23a161.72,161.72,0,0,0,27.85,5c14.87,1.59,29.78,1.72,44.71,2.36,11.71.5,23.43,1.18,35.17.4,14.53-1,28.81-3.91,43.24-5.56,8.71-1.06,18.33-2.93,26.39-6.6a20.57,20.57,0,0,0,3.62-2.15c6.27-4.84,1.87-9.92-2.89-13.6A38.17,38.17,0,0,0,767.48,296Zm-17.59,3.67c1.46-.57,2-.74,2.93-2.2A4.51,4.51,0,0,0,749.89,299.66Zm-11,1.46-.74,1.47h1.47C739.63,301.23,739.85,301.6,738.9,301.12Zm-2.94.74.74.73Zm-9.77,1.71c-.32.32.45.28.49.24C727,303.48,726.23,303.53,726.19,303.57Z" transform="translate(-545.38 -97.04)"/><path class="cls-1" d="M728.63,529.05a5.37,5.37,0,0,0,2.2.74A5.13,5.13,0,0,0,728.63,529.05Zm-6.1,1.71c-.33.33.45.29.49.25C723.34,530.68,722.57,530.72,722.53,530.76Z" transform="translate(-545.38 -97.04)"/><path d="M736.7,557.64a26.75,26.75,0,0,0,5.13-1.47C739.63,555.53,738.09,555.91,736.7,557.64Zm-15.39,0v1.46h1.46v-1.46Zm-29.56,1c-.33.33.44.29.48.25C692.56,558.53,691.79,558.57,691.75,558.61Zm41,0c-.33.33.45.29.49.25C733.6,558.53,732.83,558.57,732.79,558.61Zm6.84,1.22L736,559.1l.74,2.2-2.93-1.47-.74,2.94-2.93-1.47c-.94,1.47-.94.79,0,2.2L726.44,562V565a22.27,22.27,0,0,0-4.4-1.46c-.16,1.66,0,1.48-1.47,2.2-.45-2.64-9.61-.45-11,1.46a16.34,16.34,0,0,0-4.4-.73,4.44,4.44,0,0,1,2.93-1.47c-1.68-1.76-4.92-.94-7.32-1.46-4.42,2.23-12-.51-15.4,3.66h5.87c-6.86,2.2-14.84,2.2-22,2.2l.73,1.47a156.18,156.18,0,0,1-25.65-1.71c-5.49-.91-10.64-3.35-16.12-4.16,7.55,5.46,18.23,5.91,27,7.52,8,1.47,15.94,3.48,24.25,3.48,6.84,0,14.63-1.47,21.26,0,3.14-3.14,12.82.74,13.92-4.4l5.86.73-.73-1.46c1.77.33,2.45.56,3.66-.74a11.68,11.68,0,0,0,5.13,0l-1.46-2.93c2.6,1.67,6.52,2.61,8.79,0,1.09.74.89.74,2.2.74V565a9.57,9.57,0,0,0,2.93,2.2c0-1.31,0-1.11.74-2.2l3.66,1.47c-.73-2.09-1.51-2.47-3.66-2.93.39-1.59.61-1.4-.74-2.2v-1.47a2.61,2.61,0,0,0,1.47-1.46C741,558.59,740.59,558.65,739.63,559.83Zm-11.73-.73c.72,1.31.67,1.17,2.2,1.47A5.15,5.15,0,0,0,727.9,559.1ZM680.26,562l.74.74Z" transform="translate(-545.38 -97.04)"/><path class="cls-2" d="M702,565.94c-.33.33.44.29.48.25C702.82,565.86,702.05,565.9,702,565.94Zm12.46.73c-.33.33.44.29.48.25C715.28,566.59,714.51,566.63,714.47,566.67Zm-3.67.74c-.32.32.45.28.49.24C711.62,567.33,710.84,567.37,710.8,567.41Z" transform="translate(-545.38 -97.04)"/></svg>