<svg width="270.24" height="478.91" xmlns="http://www.w3.org/2000/svg">
 <defs>
  <style>.cls-1{fill:#484748;}.cls-2{fill:#dcd9d5;}</style>
 </defs>
 <title>Final-AGASEKE</title>
 <g>
  <title>background</title>
  <rect fill="none" id="canvas_background" height="480.91" width="272.24" y="-1" x="-1"/>
 </g>
 <g>
  <title>Layer 1</title>
  <path id="svg_1" d="m220.14,245.61c0.33,-0.32 -0.44,-0.28 -0.48,-0.24c-0.33,0.33 0.44,0.28 0.48,0.24z" class="cls-1"/>
  <path id="svg_2" d="m228.94,243.42c0.32,-0.33 -0.45,-0.29 -0.49,-0.25c-0.33,0.33 0.45,0.29 0.49,0.25z" class="cls-1"/>
  <path id="svg_3" d="m218.68,239.75c0.32,-0.33 -0.45,-0.28 -0.49,-0.24c-0.33,0.32 0.43,0.28 0.49,0.24z" class="cls-1"/>
  <path id="svg_4" d="m199.62,243.42c0.33,-0.33 -0.45,-0.29 -0.49,-0.25c-0.32,0.33 0.49,0.29 0.49,0.25z" class="cls-1"/>
  <path id="svg_5" d="m228.94,236.82c0.32,-0.33 -0.45,-0.29 -0.49,-0.25c-0.33,0.33 0.45,0.29 0.49,0.25z" class="cls-1"/>
  <path id="svg_6" d="m215.01,240.48c0.33,-0.32 -0.44,-0.28 -0.48,-0.24c-0.33,0.33 0.44,0.28 0.48,0.24z" class="cls-1"/>
  <path id="svg_7" d="m211.35,241.22c0.32,-0.33 -0.45,-0.29 -0.49,-0.25c-0.33,0.33 0.45,0.29 0.49,0.25z" class="cls-1"/>
  <path id="svg_8" d="m251.17,225.58s0.08,-0.81 -0.25,-0.49c-0.04,0.04 -0.08,0.87 0.25,0.49z" class="cls-1"/>
  <path id="svg_9" d="m242.86,231.69c0.33,-0.33 -0.44,-0.29 -0.48,-0.25c-0.33,0.33 0.44,0.29 0.48,0.25z" class="cls-1"/>
  <path id="svg_10" d="m243.62,239.02c0.32,-0.33 -0.45,-0.29 -0.49,-0.25c-0.35,0.33 0.43,0.29 0.49,0.25z" class="cls-1"/>
  <path id="svg_11" d="m230.89,243.66a5.1,5.1 0 0 0 2.2,-1.47c-1.53,0.3 -1.47,0.16 -2.2,1.47z" class="cls-1"/>
  <path fill="#7fff00" id="svg_12" d="m269.49,237.06c-1.41,-6.87 -3.88,-11.72 -10.75,-14.65c1.37,2 3.44,4.11 3.9,6.59c1.17,6.29 -8.29,10.67 -12.69,12.82c-12.84,6.24 -27.12,8.88 -41,11c-50.18,7.7 -102.94,8.53 -153.18,1.1c-13.27,-2 -25.85,-5 -38.11,-10.49c-3.45,-1.55 -10.39,-4.65 -10.26,-9.3c0.2,-3.2 3.59,-5.58 5.86,-7.33c-2.26,-0.33 -4,0.92 -5.86,2.23a17.37,17.37 0 0 0 -7.17,16.83c0.71,4.86 5,5.91 7.15,9.66c1.48,2.54 1.12,5.46 2.95,7.93c-2.2,3.1 0,4.76 0.45,8.06c1,7.33 1,14.67 2.48,22c0.91,-2.45 0.58,-5.43 0.74,-8.07c2.32,1.94 2.4,3.95 3.88,6.41c2,3.34 4,6.48 5.87,9.93c2.44,4.48 2.66,7.24 8.57,7.85c-0.47,4.93 1.74,6.83 6.6,7.33c0.22,2.67 0.49,5.59 2.93,7.1c1.46,1 3.42,1 4.72,2.12c3.61,3.4 4,6.76 9.93,6.17l0.74,4.4c-12.88,0 -28.58,-4.1 -36.65,-14.66c-1.69,4.4 1.41,11 2.2,15.39c0.73,4.09 0.73,8.45 1.88,12.46c0.94,3.66 2.92,6.93 3.89,10.47c0.51,1.83 0,3.79 0.35,5.65c0.61,3.45 1.94,6.77 2.68,10.26c1,-2.45 0.73,-4.81 0,-7.33l3.66,0.74c-0.37,3.66 0.42,6.16 3.67,8.06c-1.2,6.21 4.39,10.26 7.31,14.91c2.11,3.44 1.13,5.61 5.88,6.34c0,5.43 1.68,6.77 6.59,8.8c-1.12,5.34 4.56,5.88 4.4,11c-8.27,-3.94 -17,-5.13 -22.72,-13.19c-1.46,3.66 1.13,8.18 2.2,11.72a96.56,96.56 0 0 0 10.1,22c1.86,2.93 3.31,5.88 6,8.06a30.38,30.38 0 0 0 -2.93,-6.59c1.09,0.73 0.88,0.73 2.2,0.73l-1.47,-3.66c2.36,0 4.32,0.91 6.6,1.46l-2.93,-5.13l5.13,1.47c-1.52,-2 -2.55,-3.39 -2.93,-5.87l3.66,1.47a19.51,19.51 0 0 0 -0.73,-5.86a89.42,89.42 0 0 0 11.73,2.19c0.32,3.67 2,4.62 3.66,7.52c0.73,1.4 0.71,3.22 1.91,4.4c1.38,1.36 3.58,1.14 5,2.45s1.81,3.54 3.58,4.69c2.24,1.47 5.29,0.73 7.53,2.2c1.69,1.15 2.31,3.31 4.1,4.4s3.88,0.6 5.48,1.9c1.17,1 1.42,2.49 2.41,3.52c1.43,1.53 4,1.17 5.88,1.17c1,5.9 15.35,4.58 19.79,2.93c-2,-0.92 -3.52,-1.39 -5.13,-2.93a41.67,41.67 0 0 1 9.53,0.73l0.73,-2.93l-3.66,0l0,-2.93c3.91,0 7.95,0.38 11.72,-0.73l-1.46,-5.13l8.79,0a39.77,39.77 0 0 0 -0.73,-5.86c4,0 8.92,0.53 12.46,-1.47c-3.72,-3.66 -0.16,-5.11 3.66,-5.86l0,-3.67l2.93,0l-0.73,-2.93c4.4,1 6.36,-1.65 6.6,-5.86c0.73,1.12 0.59,1 1.46,1.46a17.16,17.16 0 0 1 5.13,-2.2a6.13,6.13 0 0 1 -2.2,3.67a7.58,7.58 0 0 0 3.67,1.46l-1.47,4.4a37.61,37.61 0 0 0 9.53,-1.46l-1.47,5.13l3.67,-0.74c-0.08,2.4 -1.47,3.68 -2.2,5.87c2.8,-0.16 4.78,-1.17 7.33,-2.2l-2.2,4.4a21.78,21.78 0 0 0 6.6,-1.47a27.43,27.43 0 0 0 -2.94,4.4l3.65,0a4.71,4.71 0 0 1 -2.2,0.73c4.1,4.47 10.62,-6.18 13.08,-8.71c3.59,-3.71 5.79,-9.33 7.83,-14c3.93,-9 9.41,-19.27 9.87,-29.32c-3.22,2.94 -5.57,6.6 -9,9.22c-10.62,8.14 -24.4,12.39 -37.16,15.7l-0.73,-0.73c2,-3.43 5.27,-4.38 8.79,-5.86a9.12,9.12 0 0 0 -0.73,-4.4c4.4,-1.66 9.11,-2.37 8.06,-8.06c2.74,-0.41 5.82,-1.11 7.3,-3.67c0.76,-1.43 0.41,-3.26 1.41,-4.39c1.23,-1.47 3.49,-1.39 4.9,-2.64c1.75,-1.57 1.51,-4.12 3,-5.87c3.23,-4 7,-3.56 6.16,-9.82l4.4,-1.46c0,-3.21 0.58,-5.09 2.93,-7.33l-1.47,5.13l3.67,-1.47l-0.74,8.07c2,0 1,1.22 0.74,2.93c2.43,-2 2,-5.13 2.54,-8.06c1.11,-6.16 2.79,-12.2 4,-18.33c-2.24,2.2 -3.83,4.94 -5.86,7.33a9.19,9.19 0 0 1 2.93,-5.13c-0.8,-3.88 1.14,-5.33 2.39,-8.79c1,-2.86 2,-5.87 3,-8.8a127.21,127.21 0 0 0 5.65,-25.65c-3.42,3 -6.32,6.13 -10.27,8.46c-7.12,4.22 -16.29,6.78 -24.18,9.27c-4.23,1.34 -11.39,5.06 -13.19,-0.87a20.69,20.69 0 0 0 8.79,-2.93l-0.73,-5.13a51,51 0 0 0 10.26,-2.94c-0.23,-5.74 2.72,-4.39 5.63,-8c1.5,-1.8 1.32,-4.47 1,-6.67c3.07,-0.41 5.86,-1.84 8.79,-2.94a35.46,35.46 0 0 1 -0.73,-6.59c4.89,-0.73 4.39,-3.51 6.59,-7.06s4.73,-8.1 8.07,-10.53l-0.74,4.4c1.32,0 1.12,0 2.2,-0.74a26.11,26.11 0 0 1 -0.73,5.13c1.78,1.34 1.36,2.32 0.73,4.4c2.87,-0.95 2.93,-2.93 3.34,-5.86c0.61,-5.11 0.94,-10.25 1.06,-15.39l-4.4,3.66c0,-2.93 1.6,-4.6 2.5,-7.33c1,-3.05 0.19,-4.91 3.36,-6.59c-0.73,-5.87 5.41,-7.6 7.74,-12.46c1.37,-2.92 0.65,-5.75 0.02,-8.82zm-257.73,12.46c-1.2,-0.4 -1.07,-0.26 -1.47,-1.46l1.47,0l0,1.46zm112.13,49.84c4.65,0 9.38,-0.35 13.93,0.73c-1.15,3.44 -4.27,2.76 -7.33,3.67c2.93,0.06 5.84,0.89 8.79,0.93c1.62,0 4,-0.62 5.38,0.54c1.22,1.11 0.05,2.48 -1.09,3c-2.35,1.07 -5.44,0.66 -8,0.66l0,1.46c5.31,0 17.16,-2.2 19,4.4c-5.68,0 -11.2,0.28 -16.85,0.73c-3.16,0.15 -6.18,-0.51 -8.8,1.47c6.36,-1.29 14.46,-1.18 20.94,-0.57c3.25,0.31 8.38,1.76 11.31,-0.16c2.66,2.68 1.12,4.13 -2.2,4.39l0,1.47c5.51,0 13.51,-2.93 13.92,4.4a15.46,15.46 0 0 0 -4.39,0.73c4.87,0 13.43,-1.87 13.92,4.4c-3.39,0.43 -7,0.5 -10.26,1.46c4.63,0.28 14.06,-2.2 16.13,2.93c-10.81,3.29 -23.95,2.66 -35.18,2.95c-5.63,0.14 -11.23,1.3 -16.86,1.45c-12.23,0.29 -24.41,-0.73 -36.64,-0.73a183.62,183.62 0 0 1 -19.69,-0.71c-3.82,-0.37 -7.33,0.06 -8.06,-4.42c3.18,0.11 6.34,0.17 9.52,0a11.58,11.58 0 0 1 -1.46,-5.87c5.4,0 10.51,1.47 15.39,-1.46c-2.33,-0.18 -7.39,-3.67 -2.76,-4.83c2,-0.45 4.41,0.43 6.42,0.43c6.87,0.16 15.39,1.22 22,-0.73c-4.1,-1 -8.27,-0.73 -12.46,-0.73c-1.9,0 -4.59,0.44 -6.35,-0.45c-2,-1 -1.13,-3.17 0.65,-3.72c3.19,-1 7.51,-0.23 10.83,-0.23a20.38,20.38 0 0 1 -2.2,-5.13c4.78,-0.22 10.84,-0.73 15.39,-2.2l-9.53,0c0.43,-5.41 6.14,-4.53 10.27,-6.6l-3.67,0l-0.01,-3.66zm-59.36,-37.4l1.46,0l0,1.47l-1.46,0l0,-1.47zm-6.6,-5.86l1.47,0l0,1.46l-1.47,0l0,-1.46zm-3.42,-0.25c0.33,-0.32 0.29,0.45 0.25,0.49c-0.33,0.35 -0.29,-0.38 -0.25,-0.47l0,-0.02zm-11.73,-1.46c0.33,-0.33 0.29,0.45 0.25,0.49c-0.33,0.34 -0.29,-0.43 -0.25,-0.47l0,-0.02zm-3.66,-0.73c0.33,-0.33 0.28,0.44 0.24,0.48c-0.32,0.35 -0.28,-0.42 -0.24,-0.46l0,-0.02zm-4.89,-2.45s0.82,-0.08 0.49,0.25c-0.04,0.06 -0.81,0.1 -0.49,-0.23l0,-0.02zm-3.42,-1a11.41,11.41 0 0 1 2.2,2.19a8.32,8.32 0 0 1 -2.93,-1.46l0.73,-0.73zm-9.52,-0.74l1.46,0a5.23,5.23 0 0 1 -1.46,2.2l0,-2.2zm-2.2,2.2c1.2,0.4 1.06,0.27 1.46,1.47l-1.46,0l0,-1.47zm-1.47,-4.4c1,0.48 0.73,0.11 0.73,1.47l-1.46,0l0.73,-1.47zm-1,3.91c0.05,0 0.82,-0.08 0.49,0.25c-0.02,0.09 -0.79,0.13 -0.49,-0.2l0,-0.05zm22.24,39.49c-5.87,-1.23 -16.34,-0.16 -20.7,-5.07c-1.35,-1.5 -1.29,-4.2 -1.77,-6.08a9.93,9.93 0 0 1 -0.25,-5.13l4.39,1.47a14.83,14.83 0 0 1 -2.2,-6.6a30.84,30.84 0 0 1 6.6,1.47a16.75,16.75 0 0 1 -1.47,-5.87c3.06,0.13 5.81,0.82 8.8,0a5.23,5.23 0 0 1 -2.2,-1.46c8.8,1.84 17.37,5.13 26.38,6.37c9.22,1.36 18.69,1.47 27.85,3.16l0,3.03a12.86,12.86 0 0 0 -3.66,1.46c2.86,0.21 7.66,1.51 9.53,3.67c2.2,-0.37 2.93,0 3.66,2.2c-3,0 -5.89,-0.13 -8.79,0.73c4.11,0 7.7,0.8 11.72,1.33c4.4,0.58 9.16,0.13 10.26,5.26c-4.39,0 -9,-1.23 -13.19,0c3.31,0 9.49,-0.36 11.73,2.2c4.07,-0.73 12.31,-1.38 13.19,3.67c-14.77,0 -29.32,-1.12 -44,-2.14c-11.79,-0.84 -24.27,-1.17 -35.86,-3.62l-0.02,-0.05zm-6.36,53.1s-0.81,0.08 -0.48,-0.24c0.06,0.01 0.83,-0.03 0.5,0.29l-0.02,-0.05zm23.94,34c-3.32,-2.93 -8.87,-3.67 -13.19,-4.4c-0.22,1.56 -0.28,2 -1.46,2.93l0.73,-3.66c-3.85,-1.11 -6.7,-2.69 -8.06,-6.6l0.73,-0.73l3.67,1.47a12.83,12.83 0 0 1 -2.2,-5.87a24.13,24.13 0 0 0 5.13,0.73c-2.25,-1.37 -2.74,-2.51 -2.93,-5.13l5.86,1.47a11,11 0 0 1 -1.47,-5.13c2.6,0.59 4.69,1.28 7.33,0.73c-2.32,-1.27 -2.73,-2.51 -2.93,-5.13c3.91,0.39 7.07,1.88 11,0.74c-2.93,-0.74 -3.93,-2.16 -4.39,-5.13c3.66,0.73 7.31,1.08 11,0c-3.14,-0.36 -4.4,-1.36 -5.13,-4.4a69.46,69.46 0 0 0 8.79,0.73l0.74,3.67a14.93,14.93 0 0 0 -3.67,0.73c4.29,0.05 8.06,1.7 12.46,1.46l0.73,6.6l7.33,0.73a41.49,41.49 0 0 1 0.74,5.87c4.94,0.73 8.79,0.89 9.52,6.59l7.33,0.74a26.32,26.32 0 0 1 -0.73,5.13a37.35,37.35 0 0 1 8.79,0.73l-0.73,3.66c-5.39,-0.68 -12.46,-2.2 -17.59,-0.73c8.44,0.17 16.61,2.93 24.92,2.93l-1.47,3.67a345.15,345.15 0 0 1 -38.84,-2.2c-6.83,-0.93 -15.16,-3.27 -21.99,-2.19l-0.02,-0.01zm92.35,47c-5.63,0.14 -11.23,1.3 -16.86,1.45c-12.23,0.29 -24.41,-0.73 -36.64,-0.73a186.32,186.32 0 0 1 -19.79,-0.7c-3.82,-0.38 -7.33,0 -8.06,-4.43c3.18,0.12 6.34,0.17 9.53,0a11.48,11.48 0 0 1 -1.47,-5.86c5.41,0 10.51,1.46 15.39,-1.47c-2.33,-0.18 -7.39,-3.66 -2.76,-4.83c2,-0.45 4.41,0.43 6.43,0.43c6.86,0.16 15.39,1.22 22,-0.73c-4.1,-1 -8.27,-0.73 -12.46,-0.73c-1.9,0 -4.59,0.44 -6.35,-0.44c-2,-1 -1.12,-3.18 0.66,-3.73c3.18,-1 7.51,-0.23 10.82,-0.23a20.75,20.75 0 0 1 -2.2,-5.13c4.78,-0.22 10.84,-0.73 15.4,-2.2l-9.53,0c0.42,-5.4 6.13,-4.53 10.26,-6.59l-3.67,0l0,-3.67c4.65,0 9.38,-0.35 13.93,0.73c-1.14,3.44 -4.27,2.76 -7.33,3.67c2.93,0.06 5.84,0.89 8.79,0.93c1.63,0 4,-0.62 5.38,0.54c1.22,1.11 0.05,2.49 -1.09,3c-2.35,1.07 -5.44,0.66 -7.95,0.66l0,1.46c5.31,0 17.16,-2.19 19,4.4c-5.68,0 -11.2,0.28 -16.85,0.73c-3.16,0.15 -6.18,-0.51 -8.8,1.47c6.36,-1.29 14.47,-1.18 21,-0.57c3.24,0.32 8.37,1.76 11.3,-0.16c2.66,2.68 1.12,4.14 -2.2,4.39l0,1.53c5.52,0 13.51,-2.93 13.93,4.4a15.9,15.9 0 0 0 -4.4,0.73c4.88,0 13.44,-1.86 13.92,4.4c-3.39,0.43 -7,0.5 -10.26,1.46c4.63,0.28 14.06,-2.19 16.13,2.94c-10.81,3.27 -23.95,2.64 -35.18,2.93l-0.02,-0.05zm63,-82.95c-0.8,2.22 -2.06,3.43 -3.67,5.13a67.29,67.29 0 0 0 8.07,-1.47c0.71,2.67 0.35,3.8 -1.47,5.86l8.06,-1.46c-0.09,2.7 -0.23,4.23 -2.93,5.13c2.43,2.4 5.69,0.2 8.79,0a18.46,18.46 0 0 1 -1.46,5.13l4.4,-1.47a5.62,5.62 0 0 1 -0.74,4.4l2.2,-0.73c0.53,3.71 -1.91,5.2 -5.13,6.59a109.89,109.89 0 0 1 -16.12,5.13c-13.65,3.22 -27.12,4.59 -41,6c-11.47,1.15 -22.9,2.81 -34.45,2.81c0.69,-5.86 8.46,-4.81 13.19,-6.6c-1.66,0 -7.54,-1.84 -3.43,-3.66c3.58,-1.76 6.94,0.23 10,-2.93c-2.08,-0.69 -3.4,-2.51 -0.73,-3.67c2.93,-1.28 7.15,-1.4 10.26,-1.46a20,20 0 0 1 -3.67,-4.4c2.93,0 8.29,0.25 10.24,-2.52c1,-1.44 0.58,-3.6 2,-4.79c1.23,-1 3.05,-0.65 4.41,-1.38c2.34,-1.25 1.64,-4.5 1.64,-6.7a35.61,35.61 0 0 0 8.8,-1.47c-1.6,-7.72 8.69,-6.35 13.92,-7.33c-0.2,2.63 -0.75,3.67 -2.93,5.13c4.08,1.56 7.77,-0.33 11.8,0.78l-0.05,-0.05zm36.58,-64.1c-1.2,2.15 -4.38,2.93 -6.53,3.69a170.37,170.37 0 0 1 -19.06,5.18c-19.37,4.39 -38.84,6.29 -58.63,7.65c-8.08,0.67 -16.12,2.14 -24.19,2.14l0,-4.4c9.52,0 19.18,-3.66 28.59,-2.2c-4.09,-3.09 -10.6,-0.73 -15.39,-0.73l-0.74,-4.4c4.62,0 9.39,-1.22 13.93,-0.73l0.73,-2.2l-2.93,0c0.38,-4.94 4.56,-5.13 8.79,-4.4c1.24,-1.39 1.86,-1.18 3.67,-0.73a6.46,6.46 0 0 1 2.93,-2.2l-5.86,0l0,-1.43c20,-0.42 40.58,-4.77 60.09,-8.8a11.87,11.87 0 0 1 -2.93,3.66a68.18,68.18 0 0 1 8.06,-0.73a9.88,9.88 0 0 1 -2.19,5.13c2.55,0.29 4.21,-0.68 6.59,-1.46a8,8 0 0 1 0,5.13c1.52,-0.52 7.2,-1.87 5.12,1.88l-0.05,-0.05z"/>
  <path id="svg_13" d="m233.34,228.76c0.32,-0.33 -0.45,-0.29 -0.49,-0.25c-0.33,0.33 0.45,0.29 0.49,0.25z" class="cls-1"/>
  <path id="svg_14" d="m234.07,235.35c0.32,-0.32 -0.45,-0.28 -0.49,-0.24c-0.33,0.32 0.45,0.28 0.49,0.24z" class="cls-1"/>
  <path fill="#7fff00" id="svg_15" d="m146.12,35.39c-2.44,-5 -4.18,-14.1 -9.13,-17.24c-6.23,-3.89 -12.14,-3.89 -19,-5.35c-10.76,-2.43 -21.26,-4.8 -32.25,-5.63c-2.46,-0.18 -4.88,0.65 -7.33,0.33c-5.56,-0.73 -10.41,-4.91 -16.12,-5.87c-8.55,-1.44 -17.45,-3 -25.65,0.37c-3,1.27 -8.06,3.63 -6.88,7.74c1.75,7 14.59,7.46 20.07,6.09c8.23,-2.06 17.81,-6 26.38,-5.52c7,0.46 13.54,4.42 20.52,5.21c7.49,0.94 15.35,-0.27 22.72,0.71c3.55,0.46 7,2.61 10.26,3.9c-3.52,3.93 -5.14,9.77 -7.08,14.66c-1,2.53 -2.24,4.54 -2.44,7.32a97.76,97.76 0 0 0 18.32,1.47c2.54,0 5.58,0 7.68,-1.63c2.43,-1.94 0.96,-4.23 -0.07,-6.56zm-83.79,-25c-6.6,1.71 -13.68,4.34 -20.52,3.17c-2.53,-0.44 -8.8,-1.15 -9.19,-4.4c-0.43,-3.66 5.85,-5.55 8.45,-6.33c9,-2.67 21.63,0.89 30,4.14c-2.25,2.32 -5.58,2.62 -8.74,3.39l0,0.03zm23.45,0.24l0,-1.47c5.13,0.45 10.22,2 15.39,2.45c4,0.32 8,-0.25 11,2.68c-8.8,-1.13 -17.66,-2.93 -26.39,-3.69l0,0.03zm33.22,4.15s-0.81,0.08 -0.48,-0.24c0.04,-0.07 0.81,-0.11 0.48,0.21l0,0.03z"/>
  <path fill="#7fff00" id="svg_16" d="m141.24,55.55c-0.33,0.33 0.44,0.29 0.48,0.25c0.33,-0.33 -0.44,-0.29 -0.48,-0.25zm-2.69,7.82a5.12,5.12 0 0 0 2.2,0.73a5.21,5.21 0 0 0 -2.2,-0.73zm-11.24,5.37c-0.32,0.33 0.45,0.29 0.49,0.25c0.33,-0.33 -0.45,-0.29 -0.49,-0.25zm12,-0.24a5.21,5.21 0 0 0 2.2,0.73a5.12,5.12 0 0 0 -2.23,-0.73l0.03,0zm-5.89,10.26l0,1.46l1.46,0l0,-1.46l-1.46,0zm4.2,0.2c-0.32,0.33 0.45,0.29 0.49,0.25c0.28,-0.25 -0.49,-0.25 -0.49,-0.25zm3.67,0c-0.33,0.33 0.44,0.29 0.48,0.25c0.28,-0.25 -0.49,-0.25 -0.53,-0.25l0.05,0zm-12.22,10a29.85,29.85 0 0 0 5.13,1.47c-1.51,-1.9 -2.86,-1.72 -5.18,-1.41l0.05,-0.06zm20.28,3.18c-0.33,0.32 0.45,0.28 0.49,0.24c0.27,-0.27 -0.5,-0.23 -0.54,-0.18l0.05,-0.06zm-15.88,1.22a7.86,7.86 0 0 0 2.93,0.73a7.67,7.67 0 0 0 -2.98,-0.67l0.05,-0.06zm19.54,3.17c-0.32,0.33 0.45,0.29 0.49,0.25c0.28,-0.27 -0.5,-0.23 -0.54,-0.19l0.05,-0.06zm-16.61,1.22a5.13,5.13 0 0 0 2.2,0.74a5.37,5.37 0 0 0 -2.25,-0.68l0.05,-0.06zm-2.2,5.13c2.63,1.11 5.37,0.8 8.06,0c-2.64,-1.04 -5.37,-0.59 -8.11,0.08l0.05,-0.08zm10.75,-0.48c-0.33,0.32 0.45,0.28 0.49,0.24c0.27,-0.27 -0.5,-0.22 -0.54,-0.18l0.05,-0.06zm-16.61,0.48a7.82,7.82 0 0 0 2.93,0.74a7.87,7.87 0 0 0 -2.98,-0.66l0.05,-0.08zm0.73,5.13c2.46,1 4.78,0.61 7.33,0c-2.37,-0.65 -4.94,0.06 -7.38,0.06l0.05,-0.06zm15.39,-0.73a7.72,7.72 0 0 0 2.93,0.73a7.81,7.81 0 0 0 -2.98,-0.67l0.05,-0.06zm-19,0.73a5.13,5.13 0 0 0 2.2,0.74a5.37,5.37 0 0 0 -2.3,-0.68l0.1,-0.06zm11.72,0a5.23,5.23 0 0 0 2.2,0.74a5.27,5.27 0 0 0 -2.3,-0.68l0.1,-0.06zm-10.56,4.71c-0.33,0.32 0.45,0.28 0.49,0.24c0.28,-0.33 -0.49,-0.28 -0.49,-0.24zm8.06,0c-0.33,0.32 0.45,0.28 0.49,0.24c0.28,-0.33 -0.49,-0.28 -0.55,-0.24l0.06,0zm2.44,1.22l2.2,-0.74c-1.34,-0.7 -1.52,-0.56 -2.24,0.76l0.04,-0.02zm-4.39,3.66a5.28,5.28 0 0 0 2.19,0.74a5.14,5.14 0 0 0 -2.23,-0.74l0.04,0zm14.41,3.91c-0.33,0.33 0.45,0.29 0.49,0.25c0.28,-0.33 -0.49,-0.29 -0.53,-0.25l0.04,0zm-13.72,0.45l0,1.47l7.33,-0.74c-2.32,-0.93 -4.83,-0.73 -7.33,-0.73zm-28.58,5.13c-1,2.2 -3.37,5.55 -1.72,7.83c2.36,3.27 10.5,3.7 14.17,4.21c11.41,1.55 23.11,0.43 34.45,-0.93c3.44,-0.42 9.71,-0.61 11.69,-4c1.4,-2.42 -0.7,-6.19 -1.43,-8.55c-18.73,5.14 -38.18,7.42 -57.16,1.48l0,-0.04zm26.38,0.73l5.13,-0.73c-2,-0.69 -3.66,-0.91 -5.13,0.77l0,-0.04z"/>
  <path id="svg_17" d="m108.5,130.06l0.73,0.73l-0.73,-0.73zm-5.13,2.9l0.73,0.74l-0.73,-0.74zm8.79,2.2l0.74,0.73l-0.74,-0.73z" class="cls-2"/>
  <path fill="#7fff00" id="svg_18" d="m157.62,141.79c1.76,-0.48 2.6,-0.74 3.67,-2.2c-1.78,0.47 -2.61,0.76 -3.67,2.2zm-1.71,-0.49c-0.32,0.32 0.45,0.28 0.49,0.24c0.31,-0.32 -0.47,-0.28 -0.51,-0.24l0.02,0zm-9.29,1.95a5.23,5.23 0 0 0 2.2,-1.46a5.23,5.23 0 0 0 -2.2,1.46zm2.93,0l2.2,-0.73c-1.31,-0.7 -1.49,-0.56 -2.21,0.73l0.01,0zm-28.09,-0.49c-0.33,0.33 0.45,0.29 0.49,0.25c0.31,-0.33 -0.46,-0.29 -0.5,-0.25l0.01,0zm2.44,-0.24a5.21,5.21 0 0 0 2.2,0.73a5.21,5.21 0 0 0 -2.21,-0.73l0.01,0zm4.15,0.24c-0.32,0.33 0.45,0.29 0.49,0.25c0.32,-0.33 -0.46,-0.29 -0.5,-0.25l0.01,0zm2.94,0c-0.33,0.33 0.44,0.29 0.48,0.25c0.32,-0.33 -0.45,-0.29 -0.49,-0.25l0.01,0zm1.71,0.49c3.61,1.26 7.95,0.23 11.72,0c-3.4,-1.42 -8.26,-1.02 -11.73,0l0.01,0zm19,2.93l0.73,0.74l-0.73,-0.74zm-8.06,0.74l0,1.46l1.46,0l0,-1.42l-1.46,-0.04zm4.15,0.24c-0.32,0.33 0.45,0.29 0.49,0.25c0.34,-0.33 -0.41,-0.29 -0.45,-0.25l-0.04,0zm-7.82,4.89c2.38,0.73 5.66,0.45 7.33,-1.47l-7.33,1.47zm8.8,0c1.46,-0.3 1.46,-0.16 2.2,-1.47a5.15,5.15 0 0 0 -2.16,1.47l-0.04,0zm7.82,-1.22c-0.33,0.32 0.44,0.28 0.48,0.24c0.37,-0.32 -0.4,-0.28 -0.45,-0.24l-0.03,0zm-26.39,0.73c-0.32,0.33 0.45,0.28 0.49,0.24c0.37,-0.32 -0.41,-0.28 -0.45,-0.24l-0.04,0zm3.67,0c-0.33,0.33 0.45,0.28 0.49,0.24c0.36,-0.32 -0.41,-0.28 -0.45,-0.24l-0.04,0zm1.71,0.49a5.94,5.94 0 0 0 3.66,0a5.87,5.87 0 0 0 -3.62,0l-0.04,0zm26.14,3.17c-0.33,0.33 0.44,0.29 0.49,0.25c0.41,-0.33 -0.41,-0.29 -0.45,-0.25l-0.04,0zm-29.07,1.23a5.26,5.26 0 0 0 2.19,0.73a5.13,5.13 0 0 0 -2.15,-0.73l-0.04,0zm6.35,0.24c-0.33,0.33 0.45,0.28 0.49,0.24c0.36,-0.32 -0.41,-0.28 -0.45,-0.24l-0.04,0zm24.43,2.69l0,1.46l1.46,0l0,-1.46l-1.46,0zm-6.81,6.84c-0.33,0.32 0.44,0.28 0.48,0.24c0.34,-0.32 -0.43,-0.28 -0.48,-0.24zm-9.29,0.49c0.4,1.19 0.27,1.06 1.47,1.46l0,-1.46l-1.47,0zm2.93,0a5.36,5.36 0 0 0 2.2,0.73a5.12,5.12 0 0 0 -2.19,-0.73l-0.01,0zm-12.7,6.1c-0.32,0.33 0.45,0.29 0.49,0.25c0.34,-0.33 -0.43,-0.29 -0.43,-0.25l-0.06,0zm16.13,4.4c-0.33,0.33 0.44,0.29 0.48,0.25c0.34,-0.33 -0.43,-0.29 -0.47,-0.25l-0.01,0zm-8.56,0.49a5.21,5.21 0 0 0 2.2,0.73a5.12,5.12 0 0 0 -2.19,-0.73l-0.01,0zm26.14,2.44c-0.32,0.33 0.45,0.29 0.49,0.25c0.34,-0.33 -0.44,-0.29 -0.48,-0.25l-0.01,0zm-12.45,1.47c-0.33,0.32 0.44,0.28 0.48,0.24c0.32,-0.32 -0.43,-0.28 -0.47,-0.24l-0.01,0zm22,2.2c-0.32,0.32 0.45,0.28 0.49,0.24c0.31,-0.32 -0.46,-0.28 -0.5,-0.24l0.01,0zm-35.2,4.39c-0.32,0.33 0.45,0.29 0.49,0.25c0.34,-0.33 -0.44,-0.29 -0.49,-0.25zm22,3.67c-0.33,0.32 0.45,0.28 0.49,0.24c0.32,-0.32 -0.49,-0.28 -0.49,-0.24zm19.79,2.2c-0.33,0.32 0.45,0.28 0.49,0.24c0.32,-0.35 -0.45,-0.28 -0.49,-0.24zm34.69,4.89c1.18,6.6 -2.31,9.07 -8.06,11.4c-7.4,3 -15.65,4.13 -23.46,5.52c-10.08,1.78 -20.13,1.57 -30.25,2.35c-18,1.37 -36,2.75 -54,2c-7.81,-0.37 -15.62,-1.43 -23.45,-1.47a86.34,86.34 0 0 1 -28.58,-5.44c-5.16,-1.89 -7.87,-5.28 -6.6,-10.68c-6.67,3.11 -15.63,13.29 -5.86,18.32c2.52,1.29 5.37,1.47 8.06,2.23a161.72,161.72 0 0 0 27.85,5c14.87,1.59 29.78,1.72 44.71,2.36c11.71,0.5 23.43,1.18 35.17,0.4c14.53,-1 28.81,-3.91 43.24,-5.56c8.71,-1.06 18.33,-2.93 26.39,-6.6a20.57,20.57 0 0 0 3.62,-2.15c6.27,-4.84 1.87,-9.92 -2.89,-13.6a38.17,38.17 0 0 0 -5.89,-4.08zm-17.59,3.67c1.46,-0.57 2,-0.74 2.93,-2.2a4.51,4.51 0 0 0 -2.93,2.19l0,0.01zm-11,1.46l-0.74,1.47l1.47,0c0.01,-1.37 0.23,-1 -0.72,-1.48l-0.01,0.01zm-2.94,0.74l0.74,0.73l-0.74,-0.73zm-9.77,1.71c-0.32,0.32 0.45,0.28 0.49,0.24c0.33,-0.34 -0.44,-0.29 -0.48,-0.25l-0.01,0.01z"/>
  <path id="svg_19" d="m183.25,432.01a5.37,5.37 0 0 0 2.2,0.74a5.13,5.13 0 0 0 -2.2,-0.74zm-6.1,1.71c-0.33,0.33 0.45,0.29 0.49,0.25c0.32,-0.33 -0.45,-0.29 -0.49,-0.25z" class="cls-1"/>
  <path fill="#7fff00" id="svg_20" d="m191.32,460.6a26.75,26.75 0 0 0 5.13,-1.47c-2.2,-0.64 -3.74,-0.26 -5.13,1.47zm-15.39,0l0,1.46l1.46,0l0,-1.46l-1.46,0zm-29.56,1c-0.33,0.33 0.44,0.29 0.48,0.25c0.33,-0.36 -0.44,-0.32 -0.48,-0.28l0,0.03zm41,0c-0.33,0.33 0.45,0.29 0.49,0.25c0.36,-0.36 -0.41,-0.32 -0.45,-0.28l-0.04,0.03zm6.84,1.22l-3.59,-0.76l0.74,2.2l-2.93,-1.47l-0.74,2.94l-2.93,-1.47c-0.94,1.47 -0.94,0.79 0,2.2l-3.7,-1.5l0,3a22.27,22.27 0 0 0 -4.4,-1.46c-0.16,1.66 0,1.48 -1.47,2.2c-0.45,-2.64 -9.61,-0.45 -11,1.46a16.34,16.34 0 0 0 -4.4,-0.73a4.44,4.44 0 0 1 2.93,-1.47c-1.68,-1.76 -4.92,-0.94 -7.32,-1.46c-4.42,2.23 -12,-0.51 -15.4,3.66l5.87,0c-6.86,2.2 -14.84,2.2 -22,2.2l0.73,1.47a156.18,156.18 0 0 1 -25.65,-1.71c-5.49,-0.91 -10.64,-3.35 -16.12,-4.16c7.55,5.46 18.23,5.91 27,7.52c8,1.47 15.94,3.48 24.25,3.48c6.84,0 14.63,-1.47 21.26,0c3.14,-3.14 12.82,0.74 13.92,-4.4l5.86,0.73l-0.73,-1.46c1.77,0.33 2.45,0.56 3.66,-0.74a11.68,11.68 0 0 0 5.13,0l-1.46,-2.93c2.6,1.67 6.52,2.61 8.79,0c1.09,0.74 0.89,0.74 2.2,0.74l0,-2.94a9.57,9.57 0 0 0 2.93,2.2c0,-1.31 0,-1.11 0.74,-2.2l3.66,1.47c-0.73,-2.09 -1.51,-2.47 -3.66,-2.93c0.39,-1.59 0.61,-1.4 -0.74,-2.2l0,-1.47a2.61,2.61 0 0 0 1.47,-1.46c-1.49,0.18 -1.9,0.24 -2.86,1.42l-0.04,0.03zm-11.73,-0.73c0.72,1.31 0.67,1.17 2.2,1.47a5.15,5.15 0 0 0 -2.16,-1.5l-0.04,0.03zm-47.6,2.87l0.74,0.74l-0.74,-0.74z"/>
  <path id="svg_21" d="m156.62,468.9c-0.33,0.33 0.44,0.29 0.48,0.25c0.34,-0.33 -0.43,-0.29 -0.48,-0.25zm12.46,0.73c-0.33,0.33 0.44,0.29 0.48,0.25c0.34,-0.33 -0.43,-0.29 -0.47,-0.25l-0.01,0zm-3.67,0.74c-0.32,0.32 0.45,0.28 0.49,0.24c0.34,-0.32 -0.44,-0.28 -0.48,-0.24l-0.01,0z" class="cls-2"/>
  <line stroke-width="0" stroke-linecap="undefined" stroke-linejoin="undefined" id="svg_22" y2="391.955" x2="269.62" y1="386.955" x1="0.62" opacity="undefined" stroke="#000" fill="none"/>
  <line stroke-width="22" stroke-linecap="undefined" stroke-linejoin="undefined" id="svg_27" y2="376" x2="251.62" y1="375.955" x1="18.62" opacity="undefined" stroke="#000" fill="none"/>
  <line stroke-linecap="undefined" stroke-linejoin="undefined" id="svg_28" y2="230" x2="271" y1="229.955" x1="-0.38" opacity="undefined" fill-opacity="null" stroke-opacity="null" stroke-dasharray="null" stroke-width="22" stroke="#000" fill="none"/>
  <line stroke-linecap="undefined" stroke-linejoin="undefined" id="svg_29" y2="87" x2="252" y1="86.955" x1="19" opacity="undefined" fill-opacity="null" stroke-opacity="null" stroke-dasharray="null" stroke-width="22" stroke="#000" fill="none"/>
 </g>
</svg>