<svg xmlns="http://www.w3.org/2000/svg" data-name="Layer 1" width="270.24" height="478.91"><rect id="backgroundrect" width="100%" height="100%" x="0" y="0" fill="none" stroke="none"/><defs><style>.cls-1{fill:#484748;}.cls-2{fill:#dcd9d5;}</style></defs><title>Final-AGASEKE</title><g class="currentLayer" style=""><title>Layer 1</title><path class="cls-1" d="M220.13999511718748,245.60999908447263 c0.33000000000000007,-0.32000000000000006 -0.44000000000000006,-0.28 -0.48000000000000004,-0.24000000000000002 C219.32999511718754,245.69999908447267 220.09999511718752,245.64999908447265 220.13999511718748,245.60999908447263 z" id="svg_1"/><path class="cls-1" d="M228.93999511718755,243.41999908447264 c0.32000000000000006,-0.33000000000000007 -0.45,-0.29000000000000004 -0.49000000000000005,-0.25 C228.1199951171875,243.49999908447268 228.89999511718747,243.45999908447266 228.93999511718755,243.41999908447264 z" id="svg_2"/><path class="cls-1" d="M218.67999511718745,239.74999908447268 c0.32000000000000006,-0.33000000000000007 -0.45,-0.28 -0.49000000000000005,-0.24000000000000002 C217.8599951171875,239.82999908447266 218.6199951171875,239.78999908447264 218.67999511718745,239.74999908447268 z" id="svg_3"/><path class="cls-1" d="M199.6199951171875,243.41999908447264 c0.33000000000000007,-0.33000000000000007 -0.45,-0.29000000000000004 -0.49000000000000005,-0.25 C198.80999511718755,243.49999908447268 199.6199951171875,243.45999908447266 199.6199951171875,243.41999908447264 z" id="svg_4"/><path class="cls-1" d="M228.93999511718755,236.81999908447267 c0.32000000000000006,-0.33000000000000007 -0.45,-0.29000000000000004 -0.49000000000000005,-0.25 C228.1199951171875,236.89999908447265 228.89999511718747,236.85999908447263 228.93999511718755,236.81999908447267 z" id="svg_5"/><path class="cls-1" d="M215.0099951171875,240.47999908447264 c0.33000000000000007,-0.32000000000000006 -0.44000000000000006,-0.28 -0.48000000000000004,-0.24000000000000002 C214.19999511718754,240.56999908447267 214.96999511718752,240.51999908447266 215.0099951171875,240.47999908447264 z" id="svg_6"/><path class="cls-1" d="M211.34999511718752,241.21999908447265 c0.32000000000000006,-0.33000000000000007 -0.45,-0.29000000000000004 -0.49000000000000005,-0.25 C210.52999511718747,241.29999908447263 211.30999511718755,241.25999908447267 211.34999511718752,241.21999908447265 z" id="svg_7"/><path class="cls-1" d="M251.16999511718745,225.57999908447266 s0.08000000000000002,-0.81 -0.25,-0.49000000000000005 C250.8799951171875,225.12999908447267 250.83999511718753,225.95999908447266 251.16999511718745,225.57999908447266 z" id="svg_8"/><path class="cls-1" d="M242.8599951171875,231.68999908447267 c0.33000000000000007,-0.33000000000000007 -0.44000000000000006,-0.29000000000000004 -0.48000000000000004,-0.25 C242.04999511718745,231.76999908447266 242.81999511718755,231.72999908447264 242.8599951171875,231.68999908447267 z" id="svg_9"/><path class="cls-1" d="M243.6199951171875,239.01999908447266 c0.32000000000000006,-0.33000000000000007 -0.45,-0.29000000000000004 -0.49000000000000005,-0.25 C242.77999511718747,239.09999908447264 243.55999511718755,239.05999908447268 243.6199951171875,239.01999908447266 z" id="svg_10"/><path class="cls-1" d="M230.88999511718748,243.65999908447264 a5.1,5.1 0 0 0 2.2,-1.47 C231.55999511718755,242.48999908447263 231.6199951171875,242.34999908447264 230.88999511718748,243.65999908447264 z" id="svg_11"/><path d="M269.4899951171875,237.05999908447268 c-1.4100000000000001,-6.87 -3.88,-11.72 -10.75,-14.65 c1.37,2 3.44,4.11 3.9,6.59 c1.17,6.29 -8.29,10.67 -12.69,12.82 c-12.84,6.24 -27.12,8.88 -41,11 c-50.18,7.7 -102.94,8.53 -153.18,1.1 c-13.27,-2 -25.85,-5 -38.11,-10.49 c-3.45,-1.55 -10.39,-4.65 -10.26,-9.3 c0.2,-3.2 3.59,-5.58 5.86,-7.33 c-2.26,-0.33000000000000007 -4,0.92 -5.86,2.23 a17.37,17.37 0 0 0 -7.17,16.83 c0.7100000000000001,4.86 5,5.91 7.15,9.66 c1.48,2.54 1.12,5.46 2.95,7.93 c-2.2,3.1 0,4.76 0.45,8.06 c1,7.33 1,14.67 2.48,22 c0.91,-2.45 0.5800000000000001,-5.43 0.7400000000000001,-8.07 c2.3200000000000003,1.94 2.4,3.95 3.88,6.41 c2,3.34 4,6.48 5.87,9.93 c2.44,4.48 2.66,7.24 8.57,7.85 c-0.47000000000000003,4.93 1.7400000000000002,6.83 6.6,7.33 c0.22000000000000003,2.67 0.49000000000000005,5.59 2.93,7.1 c1.46,1 3.42,1 4.72,2.12 c3.6100000000000003,3.4 4,6.76 9.93,6.17 l0.7400000000000001,4.4 c-12.88,0 -28.58,-4.1 -36.65,-14.66 c-1.6900000000000002,4.4 1.4100000000000001,11 2.2,15.39 c0.7300000000000001,4.09 0.7300000000000001,8.45 1.8800000000000001,12.46 c0.9400000000000001,3.66 2.92,6.93 3.89,10.47 c0.51,1.83 0,3.79 0.35000000000000003,5.65 c0.6100000000000001,3.45 1.94,6.77 2.68,10.26 c1,-2.45 0.7300000000000001,-4.8100000000000005 0,-7.33 l3.66,0.7400000000000001 c-0.37000000000000005,3.66 0.42000000000000004,6.16 3.67,8.06 c-1.2,6.21 4.39,10.26 7.3100000000000005,14.91 c2.11,3.44 1.13,5.61 5.88,6.34 c0,5.43 1.6800000000000002,6.77 6.59,8.8 c-1.12,5.34 4.5600000000000005,5.88 4.4,11 c-8.27,-3.94 -17,-5.13 -22.72,-13.19 c-1.46,3.66 1.13,8.18 2.2,11.72 a96.56,96.56 0 0 0 10.1,22 c1.86,2.93 3.31,5.88 6,8.06 a30.38,30.38 0 0 0 -2.93,-6.59 c1.09,0.7300000000000001 0.8800000000000001,0.7300000000000001 2.2,0.7300000000000001 l-1.47,-3.66 c2.36,0 4.32,0.91 6.6,1.46 l-2.93,-5.13 l5.13,1.47 c-1.52,-2 -2.55,-3.39 -2.93,-5.87 l3.66,1.47 a19.51,19.51 0 0 0 -0.7300000000000001,-5.86 a89.42,89.42 0 0 0 11.73,2.19 c0.32000000000000006,3.67 2,4.62 3.66,7.52 c0.7300000000000001,1.4 0.7100000000000001,3.22 1.9100000000000001,4.4 c1.3800000000000001,1.36 3.58,1.1400000000000001 5,2.45 s1.81,3.54 3.58,4.69 c2.24,1.47 5.29,0.7300000000000001 7.53,2.2 c1.6900000000000002,1.15 2.31,3.31 4.1,4.4 s3.88,0.6000000000000001 5.48,1.9 c1.17,1 1.42,2.49 2.41,3.52 c1.4300000000000002,1.53 4,1.17 5.88,1.17 c1,5.9 15.35,4.58 19.79,2.93 c-2,-0.92 -3.52,-1.3900000000000001 -5.13,-2.93 a41.67,41.67 0 0 1 9.53,0.7300000000000001 l0.7300000000000001,-2.93 H137.81999511718755 v-2.93 c3.91,0 7.95,0.38000000000000006 11.72,-0.7300000000000001 l-1.46,-5.13 h8.79 a39.77,39.77 0 0 0 -0.7300000000000001,-5.86 c4,0 8.92,0.53 12.46,-1.47 c-3.72,-3.66 -0.16000000000000003,-5.11 3.66,-5.86 v-3.67 h2.93 l-0.7300000000000001,-2.93 c4.4,1 6.36,-1.6500000000000001 6.6,-5.86 c0.7300000000000001,1.12 0.5900000000000001,1 1.46,1.46 a17.16,17.16 0 0 1 5.13,-2.2 a6.13,6.13 0 0 1 -2.2,3.67 a7.58,7.58 0 0 0 3.67,1.46 l-1.47,4.4 a37.61,37.61 0 0 0 9.53,-1.46 l-1.47,5.13 l3.67,-0.7400000000000001 c-0.08000000000000002,2.4 -1.47,3.68 -2.2,5.87 c2.8,-0.16000000000000003 4.78,-1.17 7.33,-2.2 l-2.2,4.4 a21.78,21.78 0 0 0 6.6,-1.47 a27.43,27.43 0 0 0 -2.94,4.4 H209.6199951171875 a4.71,4.71 0 0 1 -2.2,0.7300000000000001 c4.1,4.47 10.620000000000001,-6.18 13.08,-8.71 c3.59,-3.71 5.79,-9.33 7.83,-14 c3.93,-9 9.41,-19.27 9.870000000000001,-29.32 c-3.22,2.94 -5.57,6.6 -9,9.22 c-10.620000000000001,8.14 -24.4,12.39 -37.16,15.7 l-0.7300000000000001,-0.7300000000000001 c2,-3.43 5.27,-4.38 8.79,-5.86 a9.12,9.12 0 0 0 -0.7300000000000001,-4.4 c4.4,-1.6600000000000001 9.11,-2.37 8.06,-8.06 c2.74,-0.41000000000000003 5.82,-1.11 7.3,-3.67 c0.7600000000000001,-1.4300000000000002 0.41000000000000003,-3.26 1.4100000000000001,-4.39 c1.23,-1.47 3.49,-1.3900000000000001 4.9,-2.64 c1.75,-1.57 1.51,-4.12 3,-5.87 c3.23,-4 7,-3.56 6.16,-9.82 l4.4,-1.46 c0,-3.21 0.5800000000000001,-5.09 2.93,-7.33 l-1.47,5.13 l3.67,-1.47 l-0.7400000000000001,8.07 c2,0 1,1.22 0.7400000000000001,2.93 c2.43,-2 2,-5.13 2.54,-8.06 c1.11,-6.16 2.79,-12.2 4,-18.33 c-2.24,2.2 -3.83,4.94 -5.86,7.33 a9.19,9.19 0 0 1 2.93,-5.13 c-0.8,-3.88 1.1400000000000001,-5.33 2.39,-8.79 c1,-2.8600000000000003 2,-5.87 3,-8.8 a127.21,127.21 0 0 0 5.65,-25.65 c-3.42,3 -6.32,6.13 -10.27,8.46 c-7.12,4.22 -16.29,6.78 -24.18,9.27 c-4.23,1.34 -11.39,5.06 -13.19,-0.8700000000000001 a20.69,20.69 0 0 0 8.79,-2.93 l-0.7300000000000001,-5.13 a51,51 0 0 0 10.26,-2.94 c-0.23,-5.74 2.72,-4.39 5.63,-8 c1.5,-1.8 1.32,-4.47 1,-6.67 c3.07,-0.41000000000000003 5.86,-1.84 8.79,-2.94 a35.46,35.46 0 0 1 -0.7300000000000001,-6.59 c4.890000000000001,-0.7300000000000001 4.39,-3.51 6.59,-7.06 s4.73,-8.1 8.07,-10.53 l-0.7400000000000001,4.4 c1.32,0 1.12,0 2.2,-0.7400000000000001 a26.11,26.11 0 0 1 -0.7300000000000001,5.13 c1.78,1.34 1.36,2.3200000000000003 0.7300000000000001,4.4 c2.87,-0.9500000000000001 2.93,-2.93 3.34,-5.86 c0.6100000000000001,-5.11 0.9400000000000001,-10.25 1.06,-15.39 l-4.4,3.66 c0,-2.93 1.6,-4.6 2.5,-7.33 c1,-3.05 0.19000000000000003,-4.91 3.36,-6.59 c-0.7300000000000001,-5.87 5.41,-7.6 7.74,-12.46 C270.8399951171875,242.95999908447266 270.1199951171875,240.12999908447267 269.4899951171875,237.05999908447268 zM11.759995117187486,249.51999908447266 c-1.2,-0.4 -1.07,-0.26 -1.47,-1.46 h1.47 zM123.88999511718748,299.35999908447263 c4.65,0 9.38,-0.35000000000000003 13.93,0.7300000000000001 c-1.15,3.44 -4.27,2.7600000000000002 -7.33,3.67 c2.93,0.06000000000000001 5.84,0.8900000000000001 8.79,0.93 c1.62,0 4,-0.6200000000000001 5.38,0.54 c1.22,1.11 0.05000000000000001,2.48 -1.09,3 c-2.35,1.07 -5.44,0.6600000000000001 -8,0.6600000000000001 v1.46 c5.3100000000000005,0 17.16,-2.2 19,4.4 c-5.68,0 -11.2,0.28 -16.85,0.7300000000000001 c-3.16,0.15000000000000002 -6.18,-0.51 -8.8,1.47 c6.36,-1.29 14.46,-1.18 20.94,-0.5700000000000001 c3.25,0.31000000000000005 8.38,1.7600000000000002 11.31,-0.16000000000000003 c2.66,2.68 1.12,4.13 -2.2,4.39 v1.47 c5.51,0 13.51,-2.93 13.92,4.4 a15.46,15.46 0 0 0 -4.39,0.7300000000000001 c4.87,0 13.43,-1.87 13.92,4.4 c-3.39,0.43000000000000005 -7,0.5 -10.26,1.46 c4.63,0.28 14.06,-2.2 16.13,2.93 c-10.81,3.29 -23.95,2.66 -35.18,2.95 c-5.63,0.14 -11.23,1.3 -16.86,1.45 c-12.23,0.29000000000000004 -24.41,-0.7300000000000001 -36.64,-0.7300000000000001 A183.62,183.62 0 0 1 79.91999511718745,338.95999908447266 c-3.8200000000000003,-0.37000000000000005 -7.33,0.06000000000000001 -8.06,-4.42 c3.18,0.11000000000000001 6.34,0.17 9.52,0 a11.58,11.58 0 0 1 -1.46,-5.87 c5.4,0 10.51,1.47 15.39,-1.46 c-2.33,-0.18000000000000002 -7.39,-3.67 -2.7600000000000002,-4.83 c2,-0.45 4.41,0.43000000000000005 6.42,0.43000000000000005 c6.87,0.16000000000000003 15.39,1.22 22,-0.7300000000000001 c-4.1,-1 -8.27,-0.7300000000000001 -12.46,-0.7300000000000001 c-1.9,0 -4.59,0.44000000000000006 -6.35,-0.45 c-2,-1 -1.13,-3.17 0.6500000000000001,-3.72 c3.19,-1 7.51,-0.23 10.83,-0.23 a20.38,20.38 0 0 1 -2.2,-5.13 c4.78,-0.22000000000000003 10.84,-0.7300000000000001 15.39,-2.2 h-9.53 c0.43000000000000005,-5.41 6.14,-4.53 10.27,-6.6 h-3.67 zM64.52999511718747,261.95999908447266 h1.46 v1.47 h-1.46 zm-6.6,-5.86 h1.47 v1.46 h-1.47 zm-3.42,-0.25 c0.33000000000000007,-0.32000000000000006 0.29000000000000004,0.45 0.25,0.49000000000000005 C54.429995117187445,256.6899990844727 54.46999511718752,255.95999908447266 54.509995117187486,255.86999908447268 zm-11.73,-1.46 c0.33000000000000007,-0.33000000000000007 0.29000000000000004,0.45 0.25,0.49000000000000005 C42.69999511718754,255.21999908447265 42.739995117187505,254.44999908447267 42.77999511718747,254.40999908447264 zm-3.66,-0.7300000000000001 c0.33000000000000007,-0.33000000000000007 0.28,0.44000000000000006 0.24000000000000002,0.48000000000000004 C39.03999511718746,254.48999908447263 39.079995117187536,253.71999908447265 39.1199951171875,253.67999908447268 zm-4.890000000000001,-2.45 s0.8200000000000001,-0.08000000000000002 0.49000000000000005,0.25 C34.679995117187445,251.51999908447266 33.909995117187464,251.55999908447268 34.229995117187514,251.22999908447264 zm-3.42,-1 a11.41,11.41 0 0 1 2.2,2.19 a8.32,8.32 0 0 1 -2.93,-1.46 zm-9.52,-0.7400000000000001 h1.46 a5.23,5.23 0 0 1 -1.46,2.2 zm-2.2,2.2 c1.2,0.4 1.06,0.27 1.46,1.47 h-1.46 zm-1.47,-4.4 c1,0.48000000000000004 0.7300000000000001,0.11000000000000001 0.7300000000000001,1.47 h-1.46 zm-1,3.91 c0.05000000000000001,0 0.8200000000000001,-0.08000000000000002 0.49000000000000005,0.25 C17.089995117187527,251.51999908447266 16.319995117187545,251.55999908447268 16.6199951171875,251.22999908447264 zm22.24,39.49 c-5.87,-1.23 -16.34,-0.16000000000000003 -20.7,-5.07 c-1.35,-1.5 -1.29,-4.2 -1.77,-6.08 a9.93,9.93 0 0 1 -0.25,-5.13 l4.39,1.47 a14.83,14.83 0 0 1 -2.2,-6.6 a30.84,30.84 0 0 1 6.6,1.47 a16.75,16.75 0 0 1 -1.47,-5.87 c3.06,0.13 5.8100000000000005,0.8200000000000001 8.8,0 a5.23,5.23 0 0 1 -2.2,-1.46 c8.8,1.84 17.37,5.13 26.38,6.37 c9.22,1.36 18.69,1.47 27.85,3.16 V275.95999908447266 a12.86,12.86 0 0 0 -3.66,1.46 c2.8600000000000003,0.21000000000000002 7.66,1.51 9.53,3.67 c2.2,-0.37000000000000005 2.93,0 3.66,2.2 c-3,0 -5.890000000000001,-0.13 -8.79,0.7300000000000001 c4.11,0 7.7,0.8 11.72,1.33 c4.4,0.5800000000000001 9.16,0.13 10.26,5.26 c-4.39,0 -9,-1.23 -13.19,0 c3.31,0 9.49,-0.36000000000000004 11.73,2.2 c4.07,-0.7300000000000001 12.31,-1.3800000000000001 13.19,3.67 c-14.77,0 -29.32,-1.12 -44,-2.14 C62.94999511718754,293.4999990844727 50.46999511718752,293.16999908447264 38.87999511718749,290.71999908447265 zm-6.36,53.1 s-0.81,0.08000000000000002 -0.48000000000000004,-0.24000000000000002 C32.079995117187536,343.53999908447264 32.84999511718752,343.4999990844727 32.51999511718748,343.81999908447267 zm23.94,34 c-3.3200000000000003,-2.93 -8.870000000000001,-3.67 -13.19,-4.4 c-0.22000000000000003,1.56 -0.28,2 -1.46,2.93 l0.7300000000000001,-3.66 c-3.85,-1.11 -6.7,-2.6900000000000004 -8.06,-6.6 l0.7300000000000001,-0.7300000000000001 l3.67,1.47 a12.83,12.83 0 0 1 -2.2,-5.87 a24.13,24.13 0 0 0 5.13,0.7300000000000001 c-2.25,-1.37 -2.74,-2.51 -2.93,-5.13 l5.86,1.47 a11,11 0 0 1 -1.47,-5.13 c2.6,0.5900000000000001 4.69,1.28 7.33,0.7300000000000001 c-2.3200000000000003,-1.27 -2.73,-2.51 -2.93,-5.13 c3.91,0.39000000000000007 7.07,1.8800000000000001 11,0.7400000000000001 c-2.93,-0.7400000000000001 -3.93,-2.16 -4.39,-5.13 c3.66,0.7300000000000001 7.3100000000000005,1.08 11,0 c-3.14,-0.36000000000000004 -4.4,-1.36 -5.13,-4.4 a69.46,69.46 0 0 0 8.79,0.7300000000000001 l0.7400000000000001,3.67 a14.93,14.93 0 0 0 -3.67,0.7300000000000001 c4.29,0.05000000000000001 8.06,1.7000000000000002 12.46,1.46 l0.7300000000000001,6.6 l7.33,0.7300000000000001 a41.49,41.49 0 0 1 0.7400000000000001,5.87 c4.94,0.7300000000000001 8.79,0.8900000000000001 9.52,6.59 l7.33,0.7400000000000001 a26.32,26.32 0 0 1 -0.7300000000000001,5.13 a37.35,37.35 0 0 1 8.79,0.7300000000000001 l-0.7300000000000001,3.66 c-5.39,-0.6800000000000002 -12.46,-2.2 -17.59,-0.7300000000000001 c8.44,0.17 16.61,2.93 24.92,2.93 l-1.47,3.67 a345.15,345.15 0 0 1 -38.84,-2.2 C71.6199951171875,379.03999908447264 63.28999511718746,376.69999908447267 56.45999511718753,377.77999908447265 zm92.35,47 c-5.63,0.14 -11.23,1.3 -16.86,1.45 c-12.23,0.29000000000000004 -24.41,-0.7300000000000001 -36.64,-0.7300000000000001 a186.32,186.32 0 0 1 -19.79,-0.7000000000000001 c-3.8200000000000003,-0.38000000000000006 -7.33,0 -8.06,-4.43 c3.18,0.12000000000000001 6.34,0.17 9.53,0 a11.48,11.48 0 0 1 -1.47,-5.86 c5.41,0 10.51,1.46 15.39,-1.47 c-2.33,-0.18000000000000002 -7.39,-3.66 -2.7600000000000002,-4.83 c2,-0.45 4.41,0.43000000000000005 6.43,0.43000000000000005 c6.86,0.16000000000000003 15.39,1.22 22,-0.7300000000000001 c-4.1,-1 -8.27,-0.7300000000000001 -12.46,-0.7300000000000001 c-1.9,0 -4.59,0.44000000000000006 -6.35,-0.44000000000000006 c-2,-1 -1.12,-3.18 0.6600000000000001,-3.73 c3.18,-1 7.51,-0.23 10.82,-0.23 a20.75,20.75 0 0 1 -2.2,-5.13 c4.78,-0.22000000000000003 10.84,-0.7300000000000001 15.4,-2.2 h-9.53 c0.42000000000000004,-5.4 6.13,-4.53 10.26,-6.59 h-3.67 v-3.67 c4.65,0 9.38,-0.35000000000000003 13.93,0.7300000000000001 c-1.1400000000000001,3.44 -4.27,2.7600000000000002 -7.33,3.67 c2.93,0.06000000000000001 5.84,0.8900000000000001 8.79,0.93 c1.6300000000000001,0 4,-0.6200000000000001 5.38,0.54 c1.22,1.11 0.05000000000000001,2.49 -1.09,3 c-2.35,1.07 -5.44,0.6600000000000001 -7.95,0.6600000000000001 v1.46 c5.3100000000000005,0 17.16,-2.19 19,4.4 c-5.68,0 -11.2,0.28 -16.85,0.7300000000000001 c-3.16,0.15000000000000002 -6.18,-0.51 -8.8,1.47 c6.36,-1.29 14.47,-1.18 21,-0.5700000000000001 c3.24,0.32000000000000006 8.37,1.7600000000000002 11.3,-0.16000000000000003 c2.66,2.68 1.12,4.14 -2.2,4.39 V407.95999908447266 c5.52,0 13.51,-2.93 13.93,4.4 a15.9,15.9 0 0 0 -4.4,0.7300000000000001 c4.88,0 13.44,-1.86 13.92,4.4 c-3.39,0.43000000000000005 -7,0.5 -10.26,1.46 c4.63,0.28 14.06,-2.19 16.13,2.94 C173.17999511718745,425.1599990844727 160.03999511718746,424.5299990844727 148.80999511718755,424.81999908447267 zm63,-82.95 c-0.8,2.22 -2.06,3.43 -3.67,5.13 a67.29,67.29 0 0 0 8.07,-1.47 c0.7100000000000001,2.67 0.35000000000000003,3.8 -1.47,5.86 l8.06,-1.46 c-0.09000000000000002,2.7 -0.23,4.23 -2.93,5.13 c2.43,2.4 5.69,0.2 8.79,0 a18.46,18.46 0 0 1 -1.46,5.13 l4.4,-1.47 a5.62,5.62 0 0 1 -0.7400000000000001,4.4 l2.2,-0.7300000000000001 c0.53,3.71 -1.9100000000000001,5.2 -5.13,6.59 a109.89,109.89 0 0 1 -16.12,5.13 c-13.65,3.22 -27.12,4.59 -41,6 c-11.47,1.15 -22.9,2.81 -34.45,2.81 c0.6900000000000002,-5.86 8.46,-4.8100000000000005 13.19,-6.6 c-1.6600000000000001,0 -7.54,-1.84 -3.43,-3.66 c3.58,-1.7600000000000002 6.94,0.23 10,-2.93 c-2.08,-0.6900000000000002 -3.4,-2.51 -0.7300000000000001,-3.67 c2.93,-1.28 7.15,-1.4 10.26,-1.46 a20,20 0 0 1 -3.67,-4.4 c2.93,0 8.29,0.25 10.24,-2.52 c1,-1.44 0.5800000000000001,-3.6 2,-4.79 c1.23,-1 3.05,-0.6500000000000001 4.41,-1.3800000000000001 c2.34,-1.25 1.6400000000000001,-4.5 1.6400000000000001,-6.7 a35.61,35.61 0 0 0 8.8,-1.47 c-1.6,-7.72 8.69,-6.35 13.92,-7.33 c-0.2,2.63 -0.7500000000000001,3.67 -2.93,5.13 C204.1199951171875,342.64999908447265 207.80999511718755,340.75999908447267 211.83999511718753,341.8699990844727 zm36.58,-64.1 c-1.2,2.15 -4.38,2.93 -6.53,3.6900000000000004 a170.37,170.37 0 0 1 -19.06,5.18 c-19.37,4.39 -38.84,6.29 -58.63,7.65 c-8.08,0.6700000000000002 -16.12,2.14 -24.19,2.14 v-4.4 c9.52,0 19.18,-3.66 28.59,-2.2 c-4.09,-3.09 -10.6,-0.7300000000000001 -15.39,-0.7300000000000001 l-0.7400000000000001,-4.4 c4.62,0 9.39,-1.22 13.93,-0.7300000000000001 l0.7300000000000001,-2.2 h-2.93 c0.38000000000000006,-4.94 4.5600000000000005,-5.13 8.79,-4.4 c1.24,-1.3900000000000001 1.86,-1.18 3.67,-0.7300000000000001 a6.46,6.46 0 0 1 2.93,-2.2 h-5.86 V272.95999908447266 c20,-0.42000000000000004 40.58,-4.77 60.09,-8.8 a11.870000000000001,11.870000000000001 0 0 1 -2.93,3.66 a68.18,68.18 0 0 1 8.06,-0.7300000000000001 a9.88,9.88 0 0 1 -2.19,5.13 c2.55,0.29000000000000004 4.21,-0.6800000000000002 6.59,-1.46 a8,8 0 0 1 0,5.13 C244.81999511718755,275.3699990844727 250.4999951171875,274.01999908447266 248.41999511718745,277.76999908447266 z" id="svg_12" class="" fill="#0bd50b" fill-opacity="1"/><path class="cls-1" d="M233.33999511718753,228.75999908447267 c0.32000000000000006,-0.33000000000000007 -0.45,-0.29000000000000004 -0.49000000000000005,-0.25 C232.51999511718748,228.83999908447265 233.29999511718745,228.79999908447263 233.33999511718753,228.75999908447267 z" id="svg_13"/><path class="cls-1" d="M234.06999511718755,235.34999908447264 c0.32000000000000006,-0.32000000000000006 -0.45,-0.28 -0.49000000000000005,-0.24000000000000002 C233.2499951171875,235.42999908447268 234.02999511718747,235.38999908447266 234.06999511718755,235.34999908447264 z" id="svg_14"/><path d="M146.1199951171875,35.38999908447266 c-2.44,-5 -4.18,-14.1 -9.13,-17.24 c-6.23,-3.89 -12.14,-3.89 -19,-5.35 c-10.76,-2.43 -21.26,-4.8 -32.25,-5.63 c-2.46,-0.18000000000000002 -4.88,0.6500000000000001 -7.33,0.33000000000000007 c-5.5600000000000005,-0.7300000000000001 -10.41,-4.91 -16.12,-5.87 c-8.55,-1.44 -17.45,-3 -25.65,0.37000000000000005 c-3,1.27 -8.06,3.63 -6.88,7.74 c1.75,7 14.59,7.46 20.07,6.09 c8.23,-2.06 17.81,-6 26.38,-5.52 c7,0.46 13.54,4.42 20.52,5.21 c7.49,0.9400000000000001 15.35,-0.27 22.72,0.7100000000000001 c3.55,0.46 7,2.6100000000000003 10.26,3.9 c-3.52,3.93 -5.14,9.77 -7.08,14.66 c-1,2.5300000000000002 -2.24,4.54 -2.44,7.32 a97.76,97.76 0 0 0 18.32,1.47 c2.54,0 5.58,0 7.68,-1.6300000000000001 C148.6199951171875,40.00999908447267 147.14999511718747,37.71999908447265 146.1199951171875,35.38999908447266 zm-83.79,-25 c-6.6,1.71 -13.68,4.34 -20.52,3.17 c-2.5300000000000002,-0.44000000000000006 -8.8,-1.15 -9.19,-4.4 c-0.43000000000000005,-3.66 5.85,-5.55 8.45,-6.33 c9,-2.67 21.63,0.8900000000000001 30,4.14 C68.81999511718755,9.289999084472655 65.4899951171875,9.589999084472652 62.329995117187536,10.359999084472662 zm23.45,0.24000000000000002 v-1.47 c5.13,0.45 10.22,2 15.39,2.45 c4,0.32000000000000006 8,-0.25 11,2.68 C103.3699951171875,13.159999084472659 94.50999511718749,11.359999084472662 85.77999511718747,10.599999084472657 zm33.22,4.15 s-0.81,0.08000000000000002 -0.48000000000000004,-0.24000000000000002 C118.55999511718755,14.469999084472661 119.32999511718754,14.429999084472655 118.9999951171875,14.749999084472663 z" id="svg_15" class="" fill="#d5d50b" fill-opacity="1"/><path d="M141.2399951171875,55.54999908447266 c-0.33000000000000007,0.33000000000000007 0.44000000000000006,0.29000000000000004 0.48000000000000004,0.25 C142.04999511718745,55.46999908447265 141.27999511718747,55.50999908447267 141.2399951171875,55.54999908447266 zm-2.6900000000000004,7.82 a5.12,5.12 0 0 0 2.2,0.7300000000000001 A5.21,5.21 0 0 0 138.54999511718745,63.36999908447265 zm-11.24,5.37 c-0.32000000000000006,0.33000000000000007 0.45,0.29000000000000004 0.49000000000000005,0.25 C128.1299951171875,68.65999908447264 127.34999511718752,68.69999908447267 127.30999511718755,68.73999908447266 zm12,-0.24000000000000002 a5.21,5.21 0 0 0 2.2,0.7300000000000001 A5.12,5.12 0 0 0 139.27999511718747,68.49999908447265 zM133.41999511718745,78.75999908447267 v1.46 h1.46 V78.75999908447267 zM137.6199951171875,78.95999908447266 c-0.32000000000000006,0.33000000000000007 0.45,0.29000000000000004 0.49000000000000005,0.25 C138.38999511718748,78.95999908447266 137.6199951171875,78.95999908447266 137.6199951171875,78.95999908447266 zm3.67,0 c-0.33000000000000007,0.33000000000000007 0.44000000000000006,0.29000000000000004 0.48000000000000004,0.25 C142.04999511718745,78.95999908447266 141.27999511718747,78.95999908447266 141.2399951171875,78.95999908447266 zm-12.22,10 a29.85,29.85 0 0 0 5.13,1.47 C132.68999511718755,88.52999908447265 131.33999511718753,88.70999908447266 129.01999511718748,89.01999908447266 zm20.28,3.18 c-0.33000000000000007,0.32000000000000006 0.45,0.28 0.49000000000000005,0.24000000000000002 C150.1099951171875,92.10999908447266 149.33999511718753,92.14999908447265 149.29999511718745,92.19999908447267 zm-15.88,1.22 a7.86,7.86 0 0 0 2.93,0.7300000000000001 A7.67,7.67 0 0 0 133.41999511718745,93.41999908447266 zm19.54,3.17 c-0.32000000000000006,0.33000000000000007 0.45,0.29000000000000004 0.49000000000000005,0.25 C153.77999511718747,96.50999908447267 152.9999951171875,96.54999908447266 152.95999511718753,96.58999908447265 zm-16.61,1.22 a5.13,5.13 0 0 0 2.2,0.7400000000000001 A5.37,5.37 0 0 0 136.34999511718752,97.80999908447265 zm-2.2,5.13 c2.63,1.11 5.37,0.8 8.06,0 C139.6199951171875,101.83999908447265 136.88999511718748,102.28999908447267 134.14999511718747,102.95999908447266 zm10.75,-0.48000000000000004 c-0.33000000000000007,0.32000000000000006 0.45,0.28 0.49000000000000005,0.24000000000000002 C145.70999511718753,102.36999908447265 144.93999511718755,102.41999908447266 144.89999511718747,102.45999908447266 zm-16.61,0.48000000000000004 a7.82,7.82 0 0 0 2.93,0.7400000000000001 A7.87,7.87 0 0 0 128.28999511718746,102.95999908447266 zm0.7300000000000001,5.13 c2.46,1 4.78,0.6100000000000001 7.33,0 C134.02999511718747,107.35999908447266 131.45999511718753,108.06999908447267 129.01999511718748,108.06999908447267 zm15.39,-0.7300000000000001 a7.72,7.72 0 0 0 2.93,0.7300000000000001 A7.8100000000000005,7.8100000000000005 0 0 0 144.40999511718746,107.33999908447265 zm-19,0.7300000000000001 a5.13,5.13 0 0 0 2.2,0.7400000000000001 A5.37,5.37 0 0 0 125.35999511718751,108.06999908447267 zm11.72,0 a5.23,5.23 0 0 0 2.2,0.7400000000000001 A5.27,5.27 0 0 0 137.07999511718754,108.06999908447267 zM126.6199951171875,112.71999908447265 c-0.33000000000000007,0.32000000000000006 0.45,0.28 0.49000000000000005,0.24000000000000002 C127.38999511718748,112.62999908447264 126.6199951171875,112.67999908447266 126.6199951171875,112.71999908447265 zm8.06,0 c-0.33000000000000007,0.32000000000000006 0.45,0.28 0.49000000000000005,0.24000000000000002 C135.44999511718754,112.62999908447264 134.67999511718745,112.67999908447266 134.6199951171875,112.71999908447265 zm2.44,1.22 l2.2,-0.7400000000000001 C137.9799951171875,112.49999908447265 137.79999511718745,112.63999908447266 137.07999511718754,113.95999908447266 zm-4.39,3.66 a5.28,5.28 0 0 0 2.19,0.7400000000000001 A5.14,5.14 0 0 0 132.68999511718755,117.59999908447264 zm14.41,3.91 c-0.33000000000000007,0.33000000000000007 0.45,0.29000000000000004 0.49000000000000005,0.25 C147.90999511718746,121.42999908447266 147.13999511718748,121.46999908447265 147.09999511718752,121.50999908447267 zM133.41999511718745,121.95999908447266 v1.47 l7.33,-0.7400000000000001 C138.42999511718745,121.75999908447267 135.91999511718745,121.95999908447266 133.41999511718745,121.95999908447266 zm-28.58,5.13 c-1,2.2 -3.37,5.55 -1.7200000000000002,7.83 c2.36,3.27 10.5,3.7 14.17,4.21 c11.41,1.55 23.11,0.43000000000000005 34.45,-0.93 c3.44,-0.42000000000000004 9.71,-0.6100000000000001 11.69,-4 c1.4,-2.42 -0.7000000000000001,-6.19 -1.4300000000000002,-8.55 C143.26999511718748,130.78999908447267 123.81999511718755,133.06999908447267 104.83999511718753,127.12999908447264 zm26.38,0.7300000000000001 l5.13,-0.7300000000000001 C134.34999511718752,126.39999908447265 132.68999511718755,126.17999908447266 131.21999511718752,127.85999908447266 z" id="svg_16" class="" fill="#1aeb1a" fill-opacity="1"/><path class="cls-2" d="M108.4999951171875,130.05999908447265 l0.7300000000000001,0.7300000000000001 zM103.3699951171875,132.95999908447266 l0.7300000000000001,0.7400000000000001 zm8.79,2.2 l0.7400000000000001,0.7300000000000001 z" id="svg_17"/><path d="M157.6199951171875,141.78999908447267 c1.7600000000000002,-0.48000000000000004 2.6,-0.7400000000000001 3.67,-2.2 C159.5099951171875,140.05999908447265 158.67999511718745,140.34999908447264 157.6199951171875,141.78999908447267 zm-1.71,-0.49000000000000005 c-0.32000000000000006,0.32000000000000006 0.45,0.28 0.49000000000000005,0.24000000000000002 C156.70999511718753,141.21999908447265 155.92999511718745,141.25999908447267 155.88999511718748,141.29999908447266 zM146.6199951171875,143.24999908447265 a5.23,5.23 0 0 0 2.2,-1.46 A5.23,5.23 0 0 0 146.6199951171875,143.24999908447265 zm2.93,0 l2.2,-0.7300000000000001 C150.43999511718755,141.81999908447267 150.2599951171875,141.95999908447266 149.53999511718746,143.24999908447265 zm-28.09,-0.49000000000000005 c-0.33000000000000007,0.33000000000000007 0.45,0.29000000000000004 0.49000000000000005,0.25 C122.25999511718749,142.67999908447266 121.4899951171875,142.71999908447265 121.44999511718754,142.75999908447267 zm2.44,-0.24000000000000002 a5.21,5.21 0 0 0 2.2,0.7300000000000001 A5.21,5.21 0 0 0 123.88999511718748,142.51999908447266 zm4.15,0.24000000000000002 c-0.32000000000000006,0.33000000000000007 0.45,0.29000000000000004 0.49000000000000005,0.25 C128.8599951171875,142.67999908447266 128.07999511718754,142.71999908447265 128.03999511718746,142.75999908447267 zm2.94,0 c-0.33000000000000007,0.33000000000000007 0.44000000000000006,0.29000000000000004 0.48000000000000004,0.25 C131.78999511718746,142.67999908447266 131.01999511718748,142.71999908447265 130.9799951171875,142.75999908447267 zm1.71,0.49000000000000005 c3.6100000000000003,1.26 7.95,0.23 11.72,0 C141.01999511718748,141.82999908447266 136.15999511718746,142.22999908447267 132.68999511718755,143.24999908447265 zm19,2.93 l0.7300000000000001,0.7400000000000001 zm-8.06,0.7400000000000001 v1.46 h1.46 V146.95999908447266 zm4.15,0.24000000000000002 c-0.32000000000000006,0.33000000000000007 0.45,0.29000000000000004 0.49000000000000005,0.25 C148.6199951171875,147.07999908447266 147.8699951171875,147.11999908447265 147.82999511718754,147.15999908447264 zm-7.82,4.890000000000001 c2.38,0.7300000000000001 5.66,0.45 7.33,-1.47 zm8.8,0 c1.46,-0.30000000000000004 1.46,-0.16000000000000003 2.2,-1.47 A5.15,5.15 0 0 0 148.80999511718755,152.04999908447266 zm7.82,-1.22 c-0.33000000000000007,0.32000000000000006 0.44000000000000006,0.28 0.48000000000000004,0.24000000000000002 C157.43999511718755,150.74999908447265 156.66999511718745,150.78999908447267 156.6199951171875,150.82999908447266 zm-26.39,0.7300000000000001 c-0.32000000000000006,0.33000000000000007 0.45,0.28 0.49000000000000005,0.24000000000000002 C131.05999511718755,151.47999908447267 130.27999511718747,151.51999908447266 130.2399951171875,151.55999908447265 zm3.67,0 c-0.33000000000000007,0.33000000000000007 0.45,0.28 0.49000000000000005,0.24000000000000002 C134.71999511718752,151.47999908447267 133.94999511718754,151.51999908447266 133.90999511718746,151.55999908447265 zm1.71,0.49000000000000005 a5.94,5.94 0 0 0 3.66,0 A5.87,5.87 0 0 0 135.6199951171875,152.04999908447266 zm26.14,3.17 c-0.33000000000000007,0.33000000000000007 0.44000000000000006,0.29000000000000004 0.49000000000000005,0.25 C162.6199951171875,155.13999908447266 161.79999511718745,155.17999908447266 161.7599951171875,155.21999908447265 zm-29.07,1.23 a5.26,5.26 0 0 0 2.19,0.7300000000000001 A5.13,5.13 0 0 0 132.68999511718755,156.44999908447267 zm6.35,0.24000000000000002 c-0.33000000000000007,0.33000000000000007 0.45,0.28 0.49000000000000005,0.24000000000000002 C139.84999511718752,156.60999908447266 139.07999511718754,156.64999908447265 139.03999511718746,156.68999908447265 zm24.43,2.6900000000000004 v1.46 h1.46 v-1.46 zM156.6199951171875,166.21999908447265 c-0.33000000000000007,0.32000000000000006 0.44000000000000006,0.28 0.48000000000000004,0.24000000000000002 C157.43999511718755,166.13999908447266 156.66999511718745,166.17999908447268 156.6199951171875,166.21999908447265 zm-9.29,0.49000000000000005 c0.4,1.19 0.27,1.06 1.47,1.46 v-1.46 zm2.93,0 a5.36,5.36 0 0 0 2.2,0.7300000000000001 A5.12,5.12 0 0 0 150.26999511718748,166.70999908447266 zm-12.7,6.1 c-0.32000000000000006,0.33000000000000007 0.45,0.29000000000000004 0.49000000000000005,0.25 C138.38999511718748,172.72999908447264 137.6199951171875,172.76999908447266 137.6199951171875,172.80999908447268 zm16.13,4.4 c-0.33000000000000007,0.33000000000000007 0.44000000000000006,0.29000000000000004 0.48000000000000004,0.25 C154.5099951171875,177.12999908447267 153.7399951171875,177.16999908447264 153.69999511718754,177.20999908447266 zm-8.56,0.49000000000000005 a5.21,5.21 0 0 0 2.2,0.7300000000000001 A5.12,5.12 0 0 0 145.13999511718748,177.69999908447267 zm26.14,2.44 c-0.32000000000000006,0.33000000000000007 0.45,0.29000000000000004 0.49000000000000005,0.25 C172.09999511718752,180.05999908447268 171.31999511718755,180.09999908447264 171.27999511718747,180.13999908447266 zm-12.45,1.47 c-0.33000000000000007,0.32000000000000006 0.44000000000000006,0.28 0.48000000000000004,0.24000000000000002 C159.6199951171875,181.52999908447265 158.8699951171875,181.56999908447267 158.82999511718754,181.60999908447263 zm22,2.2 c-0.32000000000000006,0.32000000000000006 0.45,0.28 0.49000000000000005,0.24000000000000002 C181.6199951171875,183.72999908447264 180.84999511718752,183.76999908447266 180.80999511718755,183.80999908447268 zM145.6199951171875,188.19999908447267 c-0.32000000000000006,0.33000000000000007 0.45,0.29000000000000004 0.49000000000000005,0.25 C146.44999511718754,188.11999908447268 145.66999511718745,188.15999908447264 145.6199951171875,188.19999908447267 zm22,3.67 c-0.33000000000000007,0.32000000000000006 0.45,0.28 0.49000000000000005,0.24000000000000002 C168.42999511718745,191.78999908447264 167.6199951171875,191.82999908447266 167.6199951171875,191.86999908447268 zm19.79,2.2 c-0.33000000000000007,0.32000000000000006 0.45,0.28 0.49000000000000005,0.24000000000000002 C188.21999511718752,193.95999908447266 187.44999511718754,194.02999908447265 187.40999511718746,194.06999908447267 zM222.09999511718752,198.95999908447266 c1.18,6.6 -2.31,9.07 -8.06,11.4 c-7.4,3 -15.65,4.13 -23.46,5.52 c-10.08,1.78 -20.13,1.57 -30.25,2.35 c-18,1.37 -36,2.75 -54,2 c-7.8100000000000005,-0.37000000000000005 -15.620000000000001,-1.4300000000000002 -23.45,-1.47 a86.34,86.34 0 0 1 -28.58,-5.44 c-5.16,-1.8900000000000001 -7.87,-5.28 -6.6,-10.68 c-6.67,3.11 -15.63,13.29 -5.86,18.32 c2.52,1.29 5.37,1.47 8.06,2.23 a161.72,161.72 0 0 0 27.85,5 c14.870000000000001,1.59 29.78,1.7200000000000002 44.71,2.36 c11.71,0.5 23.43,1.18 35.17,0.4 c14.53,-1 28.81,-3.91 43.24,-5.5600000000000005 c8.71,-1.06 18.33,-2.93 26.39,-6.6 a20.57,20.57 0 0 0 3.62,-2.15 c6.27,-4.84 1.87,-9.92 -2.89,-13.6 A38.17,38.17 0 0 0 222.09999511718752,198.95999908447266 zm-17.59,3.67 c1.46,-0.5700000000000001 2,-0.7400000000000001 2.93,-2.2 A4.51,4.51 0 0 0 204.5099951171875,202.61999908447268 zm-11,1.46 l-0.7400000000000001,1.47 h1.47 C194.2499951171875,204.18999908447267 194.46999511718752,204.55999908447268 193.51999511718748,204.07999908447266 zm-2.94,0.7400000000000001 l0.7400000000000001,0.7300000000000001 zm-9.77,1.71 c-0.32000000000000006,0.32000000000000006 0.45,0.28 0.49000000000000005,0.24000000000000002 C181.6199951171875,206.43999908447267 180.84999511718752,206.48999908447263 180.80999511718755,206.52999908447265 z" id="svg_18" class="" fill="#0bd50b" fill-opacity="1"/><path class="cls-1" d="M183.2499951171875,432.0099990844726 a5.37,5.37 0 0 0 2.2,0.7400000000000001 A5.13,5.13 0 0 0 183.2499951171875,432.0099990844726 zm-6.1,1.71 c-0.33000000000000007,0.33000000000000007 0.45,0.29000000000000004 0.49000000000000005,0.25 C177.95999511718753,433.6399990844726 177.18999511718755,433.6799990844727 177.14999511718747,433.71999908447265 z" id="svg_19"/><path d="M191.31999511718755,460.59999908447264 a26.75,26.75 0 0 0 5.13,-1.47 C194.2499951171875,458.48999908447263 192.70999511718753,458.8699990844726 191.31999511718755,460.59999908447264 zm-15.39,0 v1.46 h1.46 v-1.46 zm-29.56,1 c-0.33000000000000007,0.33000000000000007 0.44000000000000006,0.29000000000000004 0.48000000000000004,0.25 C147.17999511718745,461.48999908447263 146.40999511718746,461.5299990844727 146.3699951171875,461.56999908447267 zm41,0 c-0.33000000000000007,0.33000000000000007 0.45,0.29000000000000004 0.49000000000000005,0.25 C188.21999511718752,461.48999908447263 187.44999511718754,461.5299990844727 187.40999511718746,461.56999908447267 zm6.84,1.22 L190.6199951171875,462.0599990844727 l0.7400000000000001,2.2 l-2.93,-1.47 l-0.7400000000000001,2.94 l-2.93,-1.47 c-0.9400000000000001,1.47 -0.9400000000000001,0.79 0,2.2 L181.05999511718755,464.95999908447266 V467.95999908447266 a22.27,22.27 0 0 0 -4.4,-1.46 c-0.16000000000000003,1.6600000000000001 0,1.48 -1.47,2.2 c-0.45,-2.64 -9.61,-0.45 -11,1.46 a16.34,16.34 0 0 0 -4.4,-0.7300000000000001 a4.44,4.44 0 0 1 2.93,-1.47 c-1.6800000000000002,-1.7600000000000002 -4.92,-0.9400000000000001 -7.32,-1.46 c-4.42,2.23 -12,-0.51 -15.4,3.66 h5.87 c-6.86,2.2 -14.84,2.2 -22,2.2 l0.7300000000000001,1.47 a156.18,156.18 0 0 1 -25.65,-1.71 c-5.49,-0.91 -10.64,-3.35 -16.12,-4.16 c7.55,5.46 18.23,5.91 27,7.52 c8,1.47 15.94,3.48 24.25,3.48 c6.84,0 14.63,-1.47 21.26,0 c3.14,-3.14 12.82,0.7400000000000001 13.92,-4.4 l5.86,0.7300000000000001 l-0.7300000000000001,-1.46 c1.77,0.33000000000000007 2.45,0.56 3.66,-0.7400000000000001 a11.68,11.68 0 0 0 5.13,0 l-1.46,-2.93 c2.6,1.6700000000000002 6.52,2.6100000000000003 8.79,0 c1.09,0.7400000000000001 0.8900000000000001,0.7400000000000001 2.2,0.7400000000000001 V467.95999908447266 a9.57,9.57 0 0 0 2.93,2.2 c0,-1.31 0,-1.11 0.7400000000000001,-2.2 l3.66,1.47 c-0.7300000000000001,-2.09 -1.51,-2.47 -3.66,-2.93 c0.39000000000000007,-1.59 0.6100000000000001,-1.4 -0.7400000000000001,-2.2 v-1.47 a2.6100000000000003,2.6100000000000003 0 0 0 1.47,-1.46 C195.6199951171875,461.5499990844727 195.20999511718753,461.60999908447263 194.2499951171875,462.7899990844727 zm-11.73,-0.7300000000000001 c0.7200000000000001,1.31 0.6700000000000002,1.17 2.2,1.47 A5.15,5.15 0 0 0 182.51999511718748,462.0599990844727 zM134.8799951171875,464.95999908447266 l0.7400000000000001,0.7400000000000001 z" id="svg_20" class="" fill="#0bd50b" fill-opacity="1"/><path class="cls-2" d="M156.6199951171875,468.8999990844727 c-0.33000000000000007,0.33000000000000007 0.44000000000000006,0.29000000000000004 0.48000000000000004,0.25 C157.43999511718755,468.81999908447267 156.66999511718745,468.85999908447263 156.6199951171875,468.8999990844727 zm12.46,0.7300000000000001 c-0.33000000000000007,0.33000000000000007 0.44000000000000006,0.29000000000000004 0.48000000000000004,0.25 C169.89999511718747,469.5499990844727 169.1299951171875,469.58999908447265 169.08999511718753,469.6299990844726 zm-3.67,0.7400000000000001 c-0.32000000000000006,0.32000000000000006 0.45,0.28 0.49000000000000005,0.24000000000000002 C166.2399951171875,470.2899990844727 165.45999511718753,470.32999908447266 165.41999511718745,470.3699990844726 z" id="svg_21"/></g></svg>